<?xml version="1.0" encoding="iso-8859-1"?>
<!-- Generator: Adobe Illustrator 19.0.0, SVG Export Plug-In . SVG Version: 6.00 Build 0)  -->
<svg version="1.1" id="Layer_1" xmlns="http://www.w3.org/2000/svg" xmlns:xlink="http://www.w3.org/1999/xlink" x="0px" y="0px"
	 viewBox="0 0 512.002 512.002" style="enable-background:new 0 0 512.002 512.002;" xml:space="preserve">
<g>
	<g>
		<polygon points="348.374,16.937 340.828,24.483 333.205,16.858 322.456,27.607 340.828,45.98 359.123,27.684 		"/>
	</g>
</g>
<g>
	<g>
		<polygon points="497.765,329.505 490.219,337.052 482.595,329.427 471.846,340.177 490.219,358.549 508.514,340.255 		"/>
	</g>
</g>
<g>
	<g>
		<polygon points="105.611,409.62 98.066,417.166 90.441,409.542 79.692,420.291 98.066,438.663 116.359,420.369 		"/>
	</g>
</g>
<g>
	<g>
		<rect x="44.996" y="29.48" transform="matrix(0.7071 -0.7071 0.7071 0.7071 -19.3233 51.5758)" width="15.201" height="39.266"/>
	</g>
</g>
<g>
	<g>
		<rect x="90.421" y="1.417" transform="matrix(0.9386 -0.3449 0.3449 0.9386 -1.245 35.1007)" width="15.2" height="39.265"/>
	</g>
</g>
<g>
	<g>
		<rect x="16.937" y="74.905" transform="matrix(0.3449 -0.9386 0.9386 0.3449 -72.6622 84.9619)" width="15.2" height="39.265"/>
	</g>
</g>
<g>
	<g>
		<path d="M415.626,74.021H103.286l-73.724,125.7l229.895,312.281l229.893-312.281L415.626,74.021z M466.992,191.647H348.366
			l61.807-96.878L466.992,191.647z M395.682,89.222L334.5,185.117l-61.179-95.895H395.682z M320.637,191.647H198.275l61.181-95.894
			L320.637,191.647z M245.591,89.222l-61.181,95.895l-61.181-95.895H245.591z M108.738,94.77l61.807,96.877H51.919L108.738,94.77z
			 M53.684,206.848h124.793l64.252,256.793L53.684,206.848z M259.456,467.87l-65.31-261.023h130.619L259.456,467.87z
			 M276.183,463.642l64.252-256.794h124.793L276.183,463.642z"/>
	</g>
</g>
<g>
	<g>
		
			<rect x="324.325" y="310.312" transform="matrix(0.5928 -0.8053 0.8053 0.5928 -107.5189 423.1689)" width="80.794" height="15.2"/>
	</g>
</g>
<g>
	<g>
		
			<rect x="387.585" y="263.374" transform="matrix(0.5928 -0.8053 0.8053 0.5928 -55.8374 431.5111)" width="22.456" height="15.2"/>
	</g>
</g>
<g>
</g>
<g>
</g>
<g>
</g>
<g>
</g>
<g>
</g>
<g>
</g>
<g>
</g>
<g>
</g>
<g>
</g>
<g>
</g>
<g>
</g>
<g>
</g>
<g>
</g>
<g>
</g>
<g>
</g>
</svg>
