<?xml version="1.0" encoding="iso-8859-1"?>
<!-- Generator: Adobe Illustrator 19.0.0, SVG Export Plug-In . SVG Version: 6.00 Build 0)  -->
<svg version="1.1" id="Layer_1" xmlns="http://www.w3.org/2000/svg" xmlns:xlink="http://www.w3.org/1999/xlink" x="0px" y="0px"
	 viewBox="0 0 511.999 511.999" style="enable-background:new 0 0 511.999 511.999;" xml:space="preserve">
<g>
	<g>
		<path d="M467.239,28.087l-10.78,10.779c14.603,14.603,22.646,34.002,22.646,54.623c0,20.621-8.042,40.019-22.646,54.623
			l10.78,10.779c17.482-17.483,27.11-40.709,27.11-65.402C494.349,68.796,484.72,45.569,467.239,28.087z"/>
	</g>
</g>
<g>
	<g>
		<path d="M461.387,209.539v-37.541h-44.201c25.556-16.734,42.477-45.615,42.477-78.377C459.662,41.998,417.663,0,366.04,0
			c-38.494,0-71.632,23.355-85.999,56.636C265.672,23.355,232.534,0,194.04,0c-51.623,0-93.622,41.998-93.622,93.622
			c0,32.763,16.92,61.643,42.477,78.377h-42.477v58.818H78.641L9.565,206.38v162.973l69.077-24.436h21.778v58.818h119.883v27.041
			h35.352v81.224h50.497v-81.224h36.333v-27.041h118.902v-37.541h41.048V209.539H461.387z M71.062,331.428L24.809,347.79V227.943
			l46.252,16.363V331.428z M100.419,329.672H86.336V246.06h14.083V329.672z M366.04,15.245c43.217,0,78.377,35.159,78.377,78.377
			s-35.16,78.377-78.377,78.377s-78.377-35.16-78.377-78.377S322.823,15.245,366.04,15.245z M314.894,171.999h-69.708
			c15.315-10.028,27.526-24.417,34.854-41.392C287.368,147.582,299.579,161.971,314.894,171.999z M115.663,93.622
			c0-43.217,35.16-78.377,78.377-78.377s78.377,35.159,78.377,78.377s-35.16,78.377-78.377,78.377
			C150.824,171.999,115.663,136.838,115.663,93.622z M290.906,496.755h-20.007v-65.979h20.007V496.755z M306.151,415.532h-50.497
			h-20.108v-11.796h91.692v11.796H306.151z M446.142,209.537v156.655v22.297H342.484H220.303h-104.64v-43.573V230.815v-43.573
			h330.478V209.537z M487.19,350.949h-25.803V224.784h25.803V350.949z"/>
	</g>
</g>
<g>
	<g>
		<path d="M273.77,230.816v114.101h152.447V230.816H273.77z M410.972,329.672H289.015V246.06h121.958V329.672z"/>
	</g>
</g>
<g>
	<g>
		<path d="M208.777,248.995c-6.291,0-12.226,2.187-16.914,6.023c-4.687-3.836-10.622-6.023-16.913-6.023
			c-14.573,0-26.428,11.985-26.428,26.718c0,6.662,2.005,10.718,3.331,13.403l0.076,0.156c5.29,10.716,30.143,31.632,35.071,35.715
			l4.851,4.021l4.861-4.007c4.976-4.103,30.055-25.11,35.139-35.838l0.129-0.272c1.3-2.735,3.264-6.869,3.264-13.175
			C235.246,260.98,223.372,248.995,208.777,248.995z M218.212,282.344l-0.137,0.289c-2.313,4.882-15.402,17.236-26.198,26.508
			c-10.747-9.273-23.824-21.652-26.276-26.618l-0.079-0.162c-0.98-1.983-1.754-3.549-1.754-6.649
			c0-6.433,4.912-11.473,11.183-11.473c4.277,0,8.173,2.356,10.166,6.15l6.748,12.839l6.747-12.84
			c1.993-3.793,5.889-6.149,10.165-6.149c6.294,0,11.224,5.04,11.224,11.473C220.001,278.579,219.172,280.323,218.212,282.344z"/>
	</g>
</g>
<g>
	<g>
		<rect x="387.356" y="366.97" width="51.787" height="15.245"/>
	</g>
</g>
<g>
	<g>
		<rect x="170.12" y="193.516" width="57.841" height="15.245"/>
	</g>
</g>
<g>
	<g>
		<rect x="148.594" y="193.516" width="13.452" height="15.245"/>
	</g>
</g>
<g>
	<g>
		<path d="M194.04,69.891c-13.085,0-23.731,10.646-23.731,23.731s10.646,23.731,23.731,23.731s23.731-10.646,23.731-23.731
			S207.127,69.891,194.04,69.891z M194.04,102.108c-4.679,0-8.486-3.807-8.486-8.486s3.807-8.486,8.486-8.486
			c4.679,0,8.486,3.807,8.486,8.486S198.721,102.108,194.04,102.108z"/>
	</g>
</g>
<g>
	<g>
		<path d="M366.04,69.891c-13.085,0-23.731,10.646-23.731,23.731c0,13.085,10.646,23.731,23.731,23.731
			c13.085,0,23.731-10.646,23.731-23.731S379.125,69.891,366.04,69.891z M366.04,102.108c-4.679,0-8.486-3.807-8.486-8.486
			c0-4.679,3.807-8.486,8.486-8.486c4.679,0,8.486,3.807,8.486,8.486S370.719,102.108,366.04,102.108z"/>
	</g>
</g>
<g>
</g>
<g>
</g>
<g>
</g>
<g>
</g>
<g>
</g>
<g>
</g>
<g>
</g>
<g>
</g>
<g>
</g>
<g>
</g>
<g>
</g>
<g>
</g>
<g>
</g>
<g>
</g>
<g>
</g>
</svg>
