<?xml version="1.0" encoding="iso-8859-1"?>
<!-- Generator: Adobe Illustrator 19.0.0, SVG Export Plug-In . SVG Version: 6.00 Build 0)  -->
<svg version="1.1" id="Layer_1" xmlns="http://www.w3.org/2000/svg" xmlns:xlink="http://www.w3.org/1999/xlink" x="0px" y="0px"
	 viewBox="0 0 511.994 511.994" style="enable-background:new 0 0 511.994 511.994;" xml:space="preserve">
<g>
	<g>
		<rect x="42.301" y="39.479" transform="matrix(0.7071 -0.7071 0.7071 0.7071 -27.4176 52.7216)" width="15.262" height="39.955"/>
	</g>
</g>
<g>
	<g>
		<rect x="88.53" y="10.923" transform="matrix(0.9386 -0.3449 0.3449 0.9386 -4.7568 35.0635)" width="15.261" height="39.954"/>
	</g>
</g>
<g>
	<g>
		<rect x="13.752" y="85.699" transform="matrix(0.3449 -0.9386 0.9386 0.3449 -85.1838 89.298)" width="15.261" height="39.954"/>
	</g>
</g>
<g>
	<g>
		<path d="M489.166,86.413l22.829-85.197l-85.198,22.828l28.494,23.081l-38.263,38.247c-18.932-12.016-40.959-18.453-64.067-18.453
			c-40.936,0-78.571,20.335-101.054,53.84c-22.483-33.505-60.116-53.84-101.054-53.84c-32.449,0-62.769,12.679-85.377,35.702
			c-22.479,22.892-34.859,53.442-34.859,86.023c0,30.524,8.826,48.35,15.919,62.675l0.767,1.553
			c13.174,26.688,53.493,68.856,94.507,107.709l-54.997,54.991l-38.345-0.745l-0.296,15.259l23.666,0.46l-7.896,7.896l-38.344-0.745
			l-0.296,15.259l23.665,0.46l-7.896,7.896l-38.342-0.745l-0.296,15.259l34.287,0.665l0.665,34.287l15.26-0.296l-0.747-38.417
			l7.895-7.895l0.46,23.738l15.26-0.296l-0.746-38.414l7.895-7.895l0.46,23.736l15.26-0.296l-0.746-38.413l55.304-55.299
			c46.367,43.166,90.557,79.891,94.096,82.824l4.855,4.025l4.867-4.012c7.004-5.774,171.838-142.084,199.804-201.107l0.792-1.668
			c6.685-14.063,15.84-33.323,15.84-62.449c0-32.58-12.38-63.131-34.859-86.023c-2.826-2.878-5.773-5.595-8.829-8.145l36.576-36.56
			L489.166,86.413z M457.934,188.644c0,25.684-7.963,42.436-14.361,55.897l-0.8,1.685
			C418.819,296.78,279.83,414.674,251.918,438.037c-12.948-10.891-49.87-42.277-88.14-77.843l94.191-94.183
			c6.225,8.361,9.914,18.716,9.914,29.917h15.262c0-36.098-29.368-65.467-65.467-65.467v15.262c10.986,0,21.153,3.557,29.429,9.566
			l-94.471,94.463c-40.14-37.943-79.357-78.738-91.648-103.638l-0.776-1.569c-6.719-13.57-14.334-28.95-14.334-55.903
			c0-59.698,46.11-106.463,104.974-106.463c39.685,0,75.818,21.847,94.3,57.014l6.755,12.854l6.755-12.854
			c18.483-35.167,54.616-57.015,94.3-57.015C411.824,82.181,457.934,128.945,457.934,188.644z M490.411,22.799l-8.236,30.736
			l-10.07-12.431l-12.431-10.07L490.411,22.799z"/>
	</g>
</g>
<g>
	<g>
		<path d="M435.03,148.237c-3.951-7.058-8.273-13.093-13.214-18.45l-11.218,10.348c4.12,4.467,7.755,9.556,11.113,15.553
			c0.267,0.476,0.529,0.954,0.784,1.436l13.473-7.169C435.663,149.382,435.351,148.811,435.03,148.237z"/>
	</g>
</g>
<g>
	<g>
		<path d="M441.17,161.56l-14.32,5.276c5.766,15.65,6.202,32.937,1.228,48.676l14.553,4.6
			C448.62,201.163,448.101,180.369,441.17,161.56z"/>
	</g>
</g>
<g>
</g>
<g>
</g>
<g>
</g>
<g>
</g>
<g>
</g>
<g>
</g>
<g>
</g>
<g>
</g>
<g>
</g>
<g>
</g>
<g>
</g>
<g>
</g>
<g>
</g>
<g>
</g>
<g>
</g>
</svg>
