<?xml version="1.0" encoding="iso-8859-1"?>
<!-- Generator: Adobe Illustrator 19.0.0, SVG Export Plug-In . SVG Version: 6.00 Build 0)  -->
<svg version="1.1" id="Layer_1" xmlns="http://www.w3.org/2000/svg" xmlns:xlink="http://www.w3.org/1999/xlink" x="0px" y="0px"
	 viewBox="0 0 512 512" style="enable-background:new 0 0 512 512;" xml:space="preserve">
<g>
	<g>
		<polygon points="74.016,44.136 66.225,51.928 58.352,44.054 47.251,55.154 66.225,74.127 85.117,55.234 		"/>
	</g>
</g>
<g>
	<g>
		<polygon points="445.443,97.308 437.651,105.102 429.779,97.229 418.679,108.327 437.651,127.3 456.544,108.409 		"/>
	</g>
</g>
<g>
	<g>
		<polygon points="238.079,437.955 230.286,445.747 222.414,437.874 211.314,448.972 230.286,467.946 249.177,449.055 		"/>
	</g>
</g>
<g>
	<g>
		<path d="M277.717,48.466c-9.305,0-16.152,3.728-21.756,8.239c-5.903-4.799-12.359-8.239-21.723-8.239
			c-17.656,0-32.021,14.532-32.021,32.393c0,8.109,2.456,13.078,4.08,16.367l0.097,0.198c6.625,13.419,38.294,40.063,44.575,45.268
			l4.995,4.14l5.005-4.126c6.341-5.227,38.288-31.981,44.644-45.396l0.166-0.351c1.596-3.358,4.008-8.435,4.008-16.1
			C309.79,62.999,295.402,48.466,277.717,48.466z M291.604,90.222l-0.175,0.369c-3.338,7.045-21.79,24.169-35.439,35.804
			c-13.578-11.632-31.99-28.77-35.518-35.919l-0.102-0.204c-1.318-2.666-2.456-4.97-2.456-9.412c0-9.362,7.17-16.696,16.324-16.696
			c6.346,0,10.027,2.807,16.365,8.763l5.437,5.111l5.379-5.173c5.999-5.771,10.169-8.7,16.298-8.7
			c9.182,0,16.375,7.335,16.375,16.696C294.093,84.987,292.884,87.53,291.604,90.222z"/>
	</g>
</g>
<g>
	<g>
		
			<rect x="146.293" y="193.548" transform="matrix(0.9816 -0.1912 0.1912 0.9816 -35.671 33.0886)" width="14.683" height="15.697"/>
	</g>
</g>
<g>
	<g>
		<path d="M222.27,227.041l31.229-58.973l-55.575,12.165c-4.03-3.536-11.5-9.319-21.474-13.694
			c-20.374-8.94-41.503-7.89-61.104,3.036c-45.511,25.367-28.127,97.552-21.814,118.841c-31.691,19.656-81.586,27.22-82.104,27.296
			L0,317.398l5.778,10.005c0.379,0.656,9.475,16.219,26.505,29.314c20.349,15.645,43.371,21.177,67.151,16.235
			c-4.295,39.73-35.358,63.969-35.686,64.22l-21.925,16.634l27.401-2.566c4.241-0.398,104.352-10.209,146.598-51.834
			c30.091-29.651,40.222-69.75,29.297-115.965C238.82,256.796,227.343,235.58,222.27,227.041z M204.805,388.223
			c-26.862,26.467-83.072,39.083-114.521,44.281c11.215-13.876,24.025-35.755,25.242-64.216c8.412-3.112,23.125-9.791,38.103-22.473
			l-10.143-11.979c-12.671,10.727-25.209,16.576-32.488,19.369l-6.897,2.29c-22.097,7.148-42.906,3.475-61.856-10.921
			c-6.826-5.186-12.228-10.921-16.063-15.589c18.845-3.849,54.917-12.951,79.878-29.995l0.822-0.575
			c2.521-1.335,13.64-7.467,24.207-17.065l-10.555-11.62c-4.535,4.119-9.25,7.534-13.089,10.059
			c-6.004-22.312-17.175-78.265,15.544-96.503c36.477-20.332,65.651,9.611,66.86,10.877l3.048,3.24l30.886-6.762l-19.675,37.155
			l2.582,3.889c0.156,0.235,15.721,23.922,23.154,55.366C239.576,328.223,231.152,362.262,204.805,388.223z"/>
	</g>
</g>
<g>
	<g>
		
			<rect x="350.491" y="194.072" transform="matrix(0.1911 -0.9816 0.9816 0.1911 92.1615 514.6597)" width="15.696" height="14.682"/>
	</g>
</g>
<g>
	<g>
		<path d="M500.579,315.714c-0.52-0.076-50.48-7.65-82.107-27.292c6.313-21.291,23.698-93.478-21.813-118.845
			c-19.599-10.925-40.73-11.974-61.104-3.036c-9.99,4.383-17.466,10.176-21.49,13.71l-56.859-12.167l32.487,59.03
			c-5.094,8.586-16.525,29.76-22.805,56.326c-10.924,46.214-0.794,86.314,29.297,115.965
			c42.245,41.624,142.355,51.436,146.597,51.834l27.158,2.535l-21.669-16.591c-0.339-0.261-31.398-24.5-35.696-64.225
			c23.749,4.941,46.79-0.588,67.15-16.24c17.03-13.094,26.126-28.658,26.505-29.314l5.771-9.999L500.579,315.714z M469.761,344.572
			c-18.949,14.396-39.763,18.073-61.799,10.939l-6.959-2.31c-7.278-2.794-19.815-8.642-32.483-19.368l-10.143,11.979
			c14.979,12.684,29.693,19.364,38.104,22.475c1.217,28.467,14.031,50.349,25.248,64.224
			c-31.438-5.189-87.635-17.792-114.527-44.289c-26.252-25.869-34.709-59.765-25.137-100.751
			c7.359-31.511,23.099-55.555,23.254-55.788l2.629-3.96l-20.418-37.099l27.271,5.835l4.311,0.9l3.031-3.179
			c1.225-1.285,30.399-31.225,66.876-10.894c32.72,18.238,21.548,74.196,15.544,96.503c-3.84-2.525-8.554-5.94-13.089-10.06
			l-10.555,11.62c10.556,9.589,21.663,15.716,24.2,17.06l0.897,0.627c24.911,17.007,60.966,26.1,79.809,29.948
			C481.987,333.654,476.587,339.387,469.761,344.572z"/>
	</g>
</g>
<g>
</g>
<g>
</g>
<g>
</g>
<g>
</g>
<g>
</g>
<g>
</g>
<g>
</g>
<g>
</g>
<g>
</g>
<g>
</g>
<g>
</g>
<g>
</g>
<g>
</g>
<g>
</g>
<g>
</g>
</svg>
