<?xml version="1.0" encoding="iso-8859-1"?>
<!-- Generator: Adobe Illustrator 19.0.0, SVG Export Plug-In . SVG Version: 6.00 Build 0)  -->
<svg version="1.1" id="Layer_1" xmlns="http://www.w3.org/2000/svg" xmlns:xlink="http://www.w3.org/1999/xlink" x="0px" y="0px"
	 viewBox="0 0 512.001 512.001" style="enable-background:new 0 0 512.001 512.001;" xml:space="preserve">
<g>
	<g>
		<path d="M482.147,435.9v-40.41H459.49V289.812h-0.001h-0.315h-41.034v-89.219c0.08-1.072,0.135-2.149,0.135-3.241v-7.604h-0.135
			h-41.35v-79.231c0.012-0.402,0.03-0.804,0.03-1.21v-7.604H309.91h-15.208h-5.27c14.888-13.157,34.885-32.093,40.143-43.192
			l0.212-0.446c1.633-3.436,3.87-8.14,4.607-14.852c1.217-11.08-2.288-22.169-9.617-30.426C317.554,4.648,307.6,0.108,296.746,0.003
			C286.112-0.107,276.6,4.027,268.84,12.038c-7.776-7.977-17.5-12.201-28.103-12.034c-10.682,0.155-20.515,4.684-27.689,12.751
			c-7.359,8.276-10.925,19.38-9.785,30.468c0.717,6.971,3.009,11.602,4.683,14.982l0.207,0.417c5.43,11,25.562,30.076,40.194,43.082
			h-5.344h-15.208h-66.909v0.015v7.589v80.44h-41.35v7.604v92.459H78.186v7.604v98.075H55.528V435.9h188.213v31.937h-42.961v44.164
			h136.115v-44.164h-42.961V435.9H482.147z M418.14,305.02h24.813c-3.348,12.3-14.615,21.369-27.962,21.369
			c-13.347,0-24.614-9.069-27.961-21.369H418.14z M402.934,289.811H386.02h-15.208h-57.948h-15.208h-57.948h-15.208h-57.948h-15.208
			h-16.599v-59.663c7.511,6.384,17.228,10.25,27.836,10.25c14.685,0,27.669-7.396,35.442-18.654
			c7.772,11.258,20.757,18.654,35.442,18.654c14.685,0,27.668-7.396,35.441-18.654c7.772,11.258,20.757,18.654,35.442,18.654
			s27.669-7.396,35.442-18.654c7.772,11.258,20.756,18.654,35.441,18.654c10.544,0,20.21-3.817,27.703-10.135V289.811z
			 M369.797,305.02c-3.348,12.3-14.615,21.369-27.961,21.369c-13.347,0-24.614-9.069-27.962-21.369H369.797z M296.642,305.02
			c-3.348,12.3-14.615,21.369-27.961,21.369c-13.347,0-24.614-9.069-27.961-21.369H296.642z M223.485,305.02
			c-3.348,12.3-14.615,21.369-27.961,21.369c-13.347,0-24.614-9.069-27.961-21.369H223.485z M206.747,205.154h53.433
			c-3.382,11.562-14.076,20.035-26.716,20.035C220.823,225.189,210.129,216.716,206.747,205.154z M277.63,205.154h53.433
			c-3.382,11.562-14.076,20.035-26.716,20.035C291.705,225.189,281.012,216.716,277.63,205.154z M376.789,204.957h25.221
			c-3.317,11.664-14.067,20.233-26.782,20.233c-12.641,0-23.333-8.473-26.716-20.035h28.278V204.957z M360.466,116.927
			c-3.259,10.548-13.1,18.231-24.704,18.231c-11.604,0-21.445-7.684-24.704-18.231H360.466z M221.79,51.891l-0.214-0.433
			c-1.413-2.854-2.748-5.55-3.185-9.791c-0.705-6.855,1.49-13.709,6.021-18.805c4.305-4.841,10.181-7.558,16.546-7.651
			c0.118-0.001,0.235-0.002,0.353-0.002c8.41,0,15.518,4.422,21.129,13.15l6.354,9.882l6.414-9.843
			c5.756-8.832,12.985-13.256,21.391-13.187c6.502,0.064,12.471,2.788,16.806,7.673c4.481,5.049,6.623,11.855,5.873,18.672
			c-0.457,4.161-1.864,7.119-3.225,9.982l-0.22,0.464c-4.519,9.537-28.971,32.153-46.984,47.398
			C250.952,84.178,226.56,61.554,221.79,51.891z M266.126,116.927l2.732,2.239l2.711-2.239h21.988
			c-3.259,10.548-13.1,18.231-24.704,18.231c-11.604,0-21.445-7.684-24.704-18.231H266.126z M226.648,116.927
			c-3.259,10.548-13.1,18.231-24.704,18.231c-11.604,0-21.445-7.684-24.704-18.231H226.648z M176.094,141.177
			c7.064,5.741,16.06,9.19,25.851,9.19c13.791,0,26.005-6.842,33.455-17.3c7.45,10.459,19.664,17.3,33.455,17.3
			c13.791,0,26.005-6.842,33.455-17.3c7.45,10.459,19.664,17.3,33.455,17.3c9.776,0,18.761-3.44,25.819-9.165v48.547h-14.19h-15.208
			h-55.675h-15.208h-55.675h-15.208h-14.325V141.177z M160.886,204.955L160.886,204.955v0.199h28.413
			c-3.382,11.562-14.076,20.035-26.716,20.035c-12.714,0-23.465-8.568-26.782-20.234H160.886z M119.536,305.02h30.794
			c-3.348,12.3-14.615,21.369-27.961,21.369c-13.347,0-24.614-9.069-27.961-21.369H119.536z M93.394,330.728
			c7.763,6.761,17.895,10.87,28.974,10.87c15.197,0,28.625-7.714,36.578-19.429c7.954,11.715,21.382,19.429,36.577,19.429
			c15.197,0,28.625-7.714,36.578-19.429c7.954,11.715,21.381,19.429,36.578,19.429c15.197,0,28.625-7.714,36.578-19.429
			c7.954,11.715,21.381,19.429,36.577,19.429c15.197,0,28.625-7.714,36.578-19.429c7.954,11.715,21.381,19.429,36.578,19.429
			c11.229,0,21.486-4.218,29.29-11.142v65.036H93.394V330.728z M321.687,483.045v13.748h-105.7v-13.748h27.753h50.194H321.687z
			 M258.949,467.837V435.9h19.778v31.937H258.949z M243.741,420.691H70.736v-9.993h7.45h381.302h7.45v9.993H293.935H243.741z"/>
	</g>
</g>
<g>
	<g>
		<polygon points="486.187,127.495 478.637,135.044 471.01,127.416 460.256,138.17 478.637,156.552 496.941,138.248 		"/>
	</g>
</g>
<g>
	<g>
		<polygon points="129.957,46.655 122.407,54.205 114.78,46.577 104.026,57.331 122.407,75.712 140.711,57.409 		"/>
	</g>
</g>
<g>
	<g>
		<polygon points="40.991,235.583 33.441,243.133 25.813,235.505 15.06,246.258 33.441,264.641 51.744,246.338 		"/>
	</g>
</g>
<g>
	<g>
		<polygon points="398.968,450.026 391.418,457.575 383.79,449.947 373.037,460.701 391.418,479.082 409.722,460.779 		"/>
	</g>
</g>
<g>
</g>
<g>
</g>
<g>
</g>
<g>
</g>
<g>
</g>
<g>
</g>
<g>
</g>
<g>
</g>
<g>
</g>
<g>
</g>
<g>
</g>
<g>
</g>
<g>
</g>
<g>
</g>
<g>
</g>
</svg>
