<?xml version="1.0" encoding="iso-8859-1"?>
<!-- Generator: Adobe Illustrator 19.0.0, SVG Export Plug-In . SVG Version: 6.00 Build 0)  -->
<svg version="1.1" id="Layer_1" xmlns="http://www.w3.org/2000/svg" xmlns:xlink="http://www.w3.org/1999/xlink" x="0px" y="0px"
	 viewBox="0 0 512.001 512.001" style="enable-background:new 0 0 512.001 512.001;" xml:space="preserve">
<g>
	<g>
		<rect x="336.627" y="149.483" width="15.609" height="15.718"/>
	</g>
</g>
<g>
	<g>
		<rect x="186.883" y="232.413" width="15.609" height="15.718"/>
	</g>
</g>
<g>
	<g>
		<rect x="41.552" y="346.456" width="15.609" height="15.718"/>
	</g>
</g>
<g>
	<g>
		<rect x="362.112" y="373.775" width="15.609" height="15.718"/>
	</g>
</g>
<g>
	<g>
		<path d="M287.279,35.988c-13.374,0-22.75,5.71-30.751,12.614c-8.438-7.243-17.395-12.614-30.673-12.614
			c-23.163,0-42.008,19.081-42.008,42.534c0,10.698,3.137,17.048,5.428,21.684l0.143,0.287c9.26,18.759,56.751,58.434,62.136,62.896
			l5.001,4.146l5.012-4.132c5.433-4.479,53.335-44.301,62.205-63.023l0.238-0.5c2.13-4.482,5.351-11.255,5.351-21.358
			C329.36,55.069,310.482,35.988,287.279,35.988z M309.815,93.133l-0.245,0.517c-5.099,10.763-33.329,36.819-52.99,53.44
			c-20.04-16.995-47.637-42.555-53.066-53.552l-0.145-0.291c-1.954-3.957-3.802-7.696-3.802-14.723
			c0-15.037,11.547-26.816,26.29-26.816c10.47,0,16.554,5.008,25.329,13.256l5.445,5.118l5.386-5.179
			c9.099-8.752,15.505-13.195,25.263-13.195c14.783,0,26.363,11.778,26.363,26.816C313.643,85.08,311.697,89.174,309.815,93.133z"/>
	</g>
</g>
<g>
	<g>
		<path d="M483.616,163.106l12.41-39.791l-39.79,12.41l-37.809-24.45l2.349,42.462l-37.052,26.572l41.792,13.514l13.514,41.792
			l26.572-37.052l42.461,2.35L483.616,163.106z M457.859,182.395l-13.453,18.756L438,181.343l-19.808-6.406l18.756-13.453
			l-1.119-20.236l18.056,11.677l18.214-5.681l-5.681,18.212l11.677,18.057L457.859,182.395z"/>
	</g>
</g>
<g>
	<g>
		<path d="M91.223,153.739l2.349-42.462l-37.809,24.45l-39.789-12.41l12.41,39.791L3.937,200.916l42.461-2.349l26.572,37.052
			l13.514-41.792l41.792-13.514L91.223,153.739z M74.001,181.343l-6.406,19.808l-13.453-18.756l-20.236,1.119l11.677-18.057
			l-5.681-18.212l18.214,5.681l18.056-11.677l-1.119,20.236l18.756,13.453L74.001,181.343z"/>
	</g>
</g>
<g>
	<g>
		<path d="M174.239,292.062c-32.438-54.183-64.46-86.525-65.807-87.876L97.304,215.29c0.316,0.316,31.994,32.308,63.448,84.846
			c28.973,48.397,63.511,124.438,63.511,211.865h15.719C239.982,420.984,204.231,342.16,174.239,292.062z"/>
	</g>
</g>
<g>
	<g>
		<path d="M403.496,204.186c-1.348,1.351-33.369,33.693-65.808,87.875C307.696,342.159,271.945,420.982,271.945,512h15.718
			c0-87.258,34.413-163.167,63.283-211.482c31.454-52.638,63.36-84.911,63.68-85.232L403.496,204.186z"/>
	</g>
</g>
<g>
	<g>
		<rect x="248.74" y="182.271" width="15.719" height="266.606"/>
	</g>
</g>
<g>
	<g>
		<polygon points="122.714,70.135 111.599,59.019 102.911,67.707 94.137,58.933 83.022,70.047 91.753,78.778 83.023,87.508 
			94.136,98.623 102.826,89.936 111.599,98.71 122.714,87.595 113.983,78.865 		"/>
	</g>
</g>
<g>
	<g>
		<polygon points="418.455,11.2 407.339,0.087 398.652,8.774 389.88,0 378.764,11.115 387.494,19.845 378.764,28.575 389.88,39.69 
			398.566,31.003 407.339,39.777 418.455,28.662 409.724,19.932 		"/>
	</g>
</g>
<g>
	<g>
		<polygon points="488.973,313.651 477.857,302.536 469.171,311.223 460.396,302.449 449.283,313.564 458.013,322.294 
			449.282,331.025 460.397,342.14 469.084,333.452 477.857,342.226 488.973,331.111 480.243,322.381 		"/>
	</g>
</g>
<g>
</g>
<g>
</g>
<g>
</g>
<g>
</g>
<g>
</g>
<g>
</g>
<g>
</g>
<g>
</g>
<g>
</g>
<g>
</g>
<g>
</g>
<g>
</g>
<g>
</g>
<g>
</g>
<g>
</g>
</svg>
