<?xml version="1.0" encoding="iso-8859-1"?>
<!-- Generator: Adobe Illustrator 19.0.0, SVG Export Plug-In . SVG Version: 6.00 Build 0)  -->
<svg version="1.1" id="Layer_1" xmlns="http://www.w3.org/2000/svg" xmlns:xlink="http://www.w3.org/1999/xlink" x="0px" y="0px"
	 viewBox="0 0 512.002 512.002" style="enable-background:new 0 0 512.002 512.002;" xml:space="preserve">
<g>
	<g>
		<rect x="55.198" y="37.404" transform="matrix(0.7071 -0.7071 0.7071 0.7071 -26.0148 62.8398)" width="15.297" height="50.836"/>
	</g>
</g>
<g>
	<g>
		<rect x="114.008" y="1.078" transform="matrix(0.9386 -0.3449 0.3449 0.9386 -1.6732 43.5872)" width="15.297" height="50.835"/>
	</g>
</g>
<g>
	<g>
		
			<rect x="18.863" y="96.227" transform="matrix(0.3449 -0.9386 0.9386 0.3449 -96.8123 104.5724)" width="15.297" height="50.835"/>
	</g>
</g>
<g>
	<g>
		<path d="M507.503,393.895c-34.924-41.815-52.863-61.703-73.907-81.603l0.036-0.036l-5.854-5.399l-5.4-4.981l-0.012,0.012
			c-26.134-23.907-47.98-42.39-66.394-56.174l0.074-0.074l-7.334-5.25l-5.275-3.775l-0.034,0.034
			c-28.623-19.886-47.871-28.242-66.517-36.334c-30.857-13.391-60.053-26.067-130.644-95.856l5.219-5.219l-27.773-27.773
			l-52.214,52.215l27.773,27.773l5.22-5.219c69.66,70.465,82.286,99.6,95.621,130.392c8.102,18.706,16.468,38.017,36.516,66.822
			l-0.034,0.034l3.783,5.276l5.251,7.325l0.074-0.074c13.78,18.382,32.274,40.217,56.205,66.362l-0.012,0.012l4.984,5.4l5.399,5.851
			l0.039-0.039c20.402,21.517,40.51,39.274,81.583,73.881l5.37,4.526l112.738-112.738L507.503,393.895z M99.248,129.821
			l-6.139-6.139l30.58-30.581l6.141,6.14L99.248,129.821z M115.285,135.417l20.139-20.139
			c28.235,27.919,50.099,46.984,68.171,60.685l-5.905,21.721l-21.743,5.911C162.27,185.529,143.218,163.667,115.285,135.417z
			 M214.125,270.547c-7.106-16.408-14.023-32.368-28.617-53.7l24.646-6.7l6.691-24.611c21.447,14.702,37.473,21.659,53.953,28.81
			c17.445,7.57,35.435,15.377,61.609,33.298l-84.808,84.808C229.523,306.102,221.706,288.052,214.125,270.547z M312.71,411.543
			c-24.148-26.402-42.596-48.255-56.104-66.463l88.437-88.437c18.241,13.511,40.104,31.947,66.496,56.072L312.71,411.543z
			 M398.365,491.248c-39.813-33.634-57.464-49.656-75.255-68.471l99.665-99.665c19.781,18.683,36.778,37.382,68.5,75.226
			L398.365,491.248z"/>
	</g>
</g>
<g>
	<g>
		<path d="M354.545,311.214l-0.063-0.188c-0.637-1.886-1.702-5.042-4.759-8.414c-3.951-4.357-9.601-6.945-15.503-7.099
			c-5.833-0.157-11.29,1.994-15.367,6.044c-3.531,3.507-5.554,6.722-6.519,10.746c-4.255,0.993-7.144,3.057-10.39,6.169
			c-4.175,4.004-6.461,9.441-6.436,15.311c0.024,5.888,2.478,11.564,6.731,15.574c3.378,3.184,6.687,4.361,8.665,5.065l0.203,0.071
			c3.435,1.227,9.275,1.624,15.401,1.624c8.59,0,17.74-0.781,21.587-1.151l6.293-0.606l0.589-6.294
			C355.59,341.526,357.369,319.545,354.545,311.214z M340.254,340.261c-10.399,0.718-21.19,0.829-24.003-0.175l-0.221-0.08
			c-1.359-0.483-2.257-0.803-3.296-1.783c-1.218-1.147-1.92-2.79-1.927-4.507c-0.004-0.948,0.214-2.755,1.726-4.204
			c2.406-2.307,2.716-2.604,6.74-2.604h7.649v-7.649c0-3.85,0.41-4.565,2.712-6.85c1.463-1.454,3.25-1.622,4.186-1.606
			c1.746,0.046,3.411,0.805,4.569,2.081c0.915,1.01,1.158,1.729,1.598,3.033l0.069,0.205
			C341.042,319.033,340.946,329.87,340.254,340.261z"/>
	</g>
</g>
<g>
</g>
<g>
</g>
<g>
</g>
<g>
</g>
<g>
</g>
<g>
</g>
<g>
</g>
<g>
</g>
<g>
</g>
<g>
</g>
<g>
</g>
<g>
</g>
<g>
</g>
<g>
</g>
<g>
</g>
</svg>
