<?xml version="1.0" encoding="iso-8859-1"?>
<!-- Generator: Adobe Illustrator 19.0.0, SVG Export Plug-In . SVG Version: 6.00 Build 0)  -->
<svg xmlns="http://www.w3.org/2000/svg" xmlns:xlink="http://www.w3.org/1999/xlink" version="1.1" id="Layer_1" x="0px" y="0px" viewBox="0 0 512.001 512.001" style="enable-background:new 0 0 512.001 512.001;" xml:space="preserve" width="512px" height="512px">
<g>
	<g>
		<path d="M215.607,106.107c-9.327,0-18.065,3.624-24.561,9.873c-6.497-6.249-15.233-9.873-24.561-9.873    c-19.315,0-35.028,15.902-35.028,35.448c0,8.892,2.594,14.143,4.49,17.978l0.112,0.227c7.537,15.27,45.731,47.18,50.062,50.769    l4.912,4.07l4.922-4.058c4.37-3.603,42.903-35.64,50.131-50.892l0.189-0.4c1.759-3.701,4.417-9.292,4.417-17.694    C250.694,122.009,234.954,106.107,215.607,106.107z M232.335,152.622l-0.198,0.416c-3.906,8.245-25.511,28.246-41.078,41.469    c-15.479-13.209-37.028-33.217-41.156-41.58l-0.115-0.235c-1.487-3.01-2.893-5.854-2.893-11.138    c0-11.221,8.606-20.011,19.591-20.011c7.46,0,14.253,4.108,17.728,10.722l6.833,13.002l6.832-13.002    c3.475-6.613,10.269-10.722,17.728-10.722c11.019,0,19.649,8.79,19.649,20.011C235.258,146.474,233.771,149.599,232.335,152.622z" fill="#ff847c"/>
	</g>
</g>
<g>
	<g>
		<path d="M360.78,225.229c-6.779,0-13.168,2.404-18.164,6.608c-4.997-4.204-11.385-6.608-18.164-6.608    c-15.393,0-27.916,12.663-27.916,28.226c0,7.047,2.124,11.343,3.53,14.188l0.082,0.166c5.639,11.425,32.264,33.829,37.543,38.205    l4.912,4.07l4.922-4.058c5.331-4.395,32.196-26.897,37.612-38.327l0.139-0.293c1.379-2.899,3.462-7.282,3.462-13.95    C388.739,237.89,376.197,225.229,360.78,225.229z M371.335,260.776l-0.148,0.312c-2.534,5.347-16.873,18.866-28.56,28.884    c-11.629-10.013-25.952-23.555-28.638-28.997l-0.085-0.172c-1.08-2.184-1.932-3.91-1.932-7.349    c0-7.172,5.481-12.789,12.478-12.789c4.768,0,9.11,2.626,11.332,6.854l6.833,13l6.833-13c2.222-4.228,6.564-6.854,11.332-6.854    c7.022,0,12.522,5.617,12.522,12.789C373.302,256.639,372.391,258.555,371.335,260.776z" fill="#ff847c"/>
	</g>
</g>
<g>
	<g>
		<path d="M421.905,166.062c-18.928-20.668-46.338-31.593-79.268-31.593c-8.24,0-16.273,0.84-24.011,2.463    c0.102-2.849,0.162-5.684,0.162-8.485c0-35.647-11.433-67.761-32.192-90.429C263.82,13.146,230.789,0,191.076,0    c-36.35,0-69.255,13.457-92.656,37.893C75.813,61.5,63.363,93.659,63.363,128.448c0,50.297,15.014,100.173,42.278,140.438    c17.409,25.71,37.862,44.325,58.034,53.517c-8.424,9.157-9.585,21.527-2.475,28.638c3.146,3.145,7.322,4.675,11.795,4.675    c1.433,0,2.895-0.162,4.365-0.472c-0.113,1.286-0.176,2.644-0.176,4.085c0,11.821,4.11,18.173,7.414,23.277    c2.866,4.428,4.936,7.627,4.936,14.889c0,7.263-2.071,10.461-4.936,14.89c-3.302,5.105-7.414,11.455-7.414,23.276    c0,11.822,4.11,18.175,7.414,23.278c2.866,4.429,4.936,7.629,4.936,14.892c0,7.264-2.071,10.463-4.937,14.893    c-3.303,5.104-7.413,11.456-7.413,23.278h15.437c0-7.264,2.071-10.463,4.937-14.893c3.302-5.104,7.413-11.456,7.413-23.278    c0-11.822-4.11-18.174-7.413-23.277c-2.866-4.429-4.937-7.629-4.937-14.893c0-7.262,2.071-10.46,4.936-14.889    c3.302-5.105,7.414-11.456,7.414-23.277s-4.11-18.173-7.414-23.276c-2.866-4.428-4.936-7.627-4.936-14.89    c0-3.953,0.616-6.699,1.638-9.097c4.668,3.616,9.963,5.485,14.899,5.485c4.474,0,8.651-1.53,11.796-4.676    c7.188-7.188,5.924-19.752-2.754-28.939c9.182-4.378,18.547-10.818,27.78-19.146c13.979,45.408,42.334,83.039,71.764,97.413    c-0.071,0.07-0.147,0.131-0.218,0.202c-3.847,3.847-6.442,8.623-7.309,13.448c-1.034,5.765,0.491,11.188,4.183,14.881    c3.035,3.035,7.062,4.514,11.369,4.514c1.687,0,3.416-0.233,5.146-0.682c-0.073,1.217-0.112,2.507-0.112,3.878    c0,11.037,2.53,16.829,4.762,21.937c1.939,4.44,3.471,7.947,3.471,15.758c0,7.812-1.531,11.319-3.471,15.759    c-2.232,5.11-4.762,10.902-4.762,21.937h15.437c0-7.812,1.531-11.319,3.471-15.759c2.232-5.11,4.762-10.902,4.762-21.937    c0-11.036-2.53-16.828-4.762-21.936c-1.94-4.44-3.471-7.947-3.471-15.759c0-2.959,0.22-5.298,0.599-7.306    c4.051,2.712,8.489,4.109,12.668,4.109c4.306-0.001,8.334-1.48,11.369-4.514c3.693-3.694,5.218-9.117,4.183-14.881    c-0.866-4.825-3.462-9.601-7.309-13.448c-0.164-0.164-0.338-0.307-0.504-0.466c15.745-7.99,31.776-23.012,45.727-43.393    c22.998-33.6,35.664-74.668,35.664-115.639C448.639,211.524,439.145,184.886,421.905,166.062z M183.35,330.236    c-0.123,1.481-0.96,4.016-3.483,6.537c-3.56,3.558-7.157,3.767-7.747,3.357c-0.426-0.603-0.214-4.198,3.345-7.757    c2.766-2.766,5.554-3.509,6.936-3.509c0.396,0,0.677,0.062,0.809,0.152c0.084,0.12,0.142,0.363,0.155,0.698    C183.364,329.89,183.347,330.061,183.35,330.236z M210.043,340.118c-0.604,0.422-4.2,0.214-7.758-3.345    c-0.095-0.095-0.178-0.19-0.269-0.285c0.79-1.832,1.483-3.881,2.002-6.208c0.86,0.517,1.764,1.188,2.669,2.093    C210.247,335.933,210.457,339.528,210.043,340.118z M244.349,282.97c-18.315,19.366-37.733,30.474-53.273,30.474    c-22.589,0-50.427-20.39-72.653-53.214c-25.552-37.737-39.623-84.538-39.623-131.783c0-65.481,47.218-113.009,112.276-113.009    c68.205,0,112.276,44.359,112.276,113.01c0,5.904-0.245,11.964-0.727,18.009c-3.828,48.011-23.214,95.865-52.326,129.896    C248.359,278.621,246.374,280.828,244.349,282.97z M334.926,408.92c-0.041,1.222-0.779,3.605-3.112,5.937    c-2.724,2.726-5.531,3.282-6.458,3.084c-0.199-0.926,0.359-3.733,3.084-6.456c2.724-2.724,5.528-3.28,6.457-3.084    c0.021,0.098,0.028,0.226,0.031,0.363C334.928,408.816,334.926,408.867,334.926,408.92z M359.92,417.941    c-0.926,0.198-3.732-0.358-6.457-3.084c-0.376-0.376-0.702-0.752-0.999-1.126c0.427-1.393,0.812-2.905,1.129-4.583    c1.008,0.486,2.128,1.223,3.243,2.337C359.559,414.21,360.118,417.014,359.92,417.941z M342.638,391.198    c-14.343,0-31.626-10.452-47.416-28.676c-16.625-19.187-29.594-44.653-36.763-72.073c0.061-0.068,0.12-0.138,0.182-0.206    c0.372-0.412,0.735-0.834,1.103-1.249c0.657-0.742,1.314-1.483,1.963-2.237c0.41-0.477,0.811-0.962,1.216-1.443    c0.597-0.708,1.194-1.416,1.782-2.134c0.425-0.519,0.843-1.045,1.263-1.568c0.559-0.697,1.118-1.392,1.669-2.098    c0.429-0.55,0.853-1.105,1.278-1.66c0.532-0.695,1.063-1.39,1.588-2.094c0.428-0.574,0.852-1.154,1.276-1.733    c0.509-0.698,1.018-1.398,1.521-2.104c0.424-0.595,0.844-1.193,1.262-1.794c0.491-0.704,0.98-1.412,1.463-2.123    c0.418-0.614,0.833-1.231,1.245-1.85c0.474-0.712,0.945-1.428,1.412-2.149c0.408-0.628,0.814-1.258,1.216-1.891    c0.46-0.725,0.916-1.454,1.369-2.185c0.397-0.641,0.794-1.282,1.187-1.929c0.446-0.736,0.886-1.477,1.325-2.219    c0.386-0.652,0.773-1.304,1.153-1.962c0.434-0.75,0.861-1.508,1.287-2.265c0.372-0.659,0.745-1.316,1.112-1.98    c0.425-0.771,0.842-1.549,1.26-2.327c0.355-0.66,0.713-1.317,1.062-1.982c0.421-0.802,0.832-1.611,1.245-2.419    c0.332-0.649,0.669-1.296,0.996-1.949c0.437-0.874,0.862-1.757,1.289-2.637c0.289-0.596,0.586-1.188,0.871-1.787    c0.679-1.427,1.345-2.863,2-4.307c0.231-0.509,0.453-1.025,0.68-1.536c0.458-1.03,0.918-2.06,1.364-3.099    c0.281-0.654,0.55-1.313,0.825-1.971c0.364-0.87,0.732-1.737,1.087-2.612c0.285-0.702,0.56-1.41,0.839-2.115    c0.331-0.836,0.664-1.67,0.987-2.511c0.28-0.729,0.55-1.461,0.823-2.193c0.308-0.825,0.617-1.65,0.918-2.479    c0.27-0.744,0.53-1.492,0.793-2.24c0.289-0.824,0.579-1.648,0.86-2.475c0.256-0.754,0.506-1.512,0.756-2.268    c0.273-0.827,0.544-1.656,0.81-2.486c0.243-0.761,0.48-1.522,0.714-2.286c0.257-0.835,0.513-1.669,0.762-2.507    c0.227-0.765,0.451-1.53,0.672-2.298c0.242-0.842,0.48-1.684,0.713-2.529c0.212-0.766,0.421-1.533,0.626-2.301    c0.227-0.853,0.45-1.708,0.669-2.565c0.196-0.763,0.389-1.526,0.577-2.291c0.213-0.867,0.419-1.735,0.624-2.604    c0.178-0.758,0.357-1.517,0.529-2.277c0.2-0.886,0.391-1.774,0.581-2.662c0.159-0.744,0.321-1.487,0.473-2.232    c0.188-0.917,0.365-1.836,0.543-2.755c0.14-0.721,0.283-1.442,0.416-2.164c0.177-0.956,0.341-1.914,0.505-2.872    c0.118-0.688,0.243-1.376,0.356-2.064c0.171-1.044,0.327-2.089,0.485-3.135c0.091-0.603,0.189-1.205,0.276-1.808    c0.198-1.375,0.378-2.751,0.551-4.128c0.035-0.275,0.075-0.55,0.109-0.825c0.199-1.619,0.382-3.239,0.548-4.86    c7.978-2.068,16.401-3.112,25.11-3.112c55.016,0,90.564,35.784,90.564,91.165C433.201,322.492,377.574,391.198,342.638,391.198z" fill="#ff847c"/>
	</g>
</g>
<g>
	<g>
		<path d="M241.403,34.289l-6.44,14.03c3.958,1.816,7.753,3.935,11.278,6.297l8.592-12.824    C250.625,38.973,246.107,36.449,241.403,34.289z" fill="#ff847c"/>
	</g>
</g>
<g>
	<g>
		<path d="M260.252,45.711l-9.489,12.177c12.504,9.744,21.605,22.897,27.049,39.098l14.633-4.918    C286.11,73.215,274.977,57.185,260.252,45.711z" fill="#ff847c"/>
	</g>
</g>
<g>
	<g>
		<path d="M288.386,314.25l-14.218,6.012c6.957,16.455,16.522,30.792,27.658,41.459l10.678-11.148    C303.01,341.478,294.445,328.577,288.386,314.25z" fill="#ff847c"/>
	</g>
</g>
<g>
</g>
<g>
</g>
<g>
</g>
<g>
</g>
<g>
</g>
<g>
</g>
<g>
</g>
<g>
</g>
<g>
</g>
<g>
</g>
<g>
</g>
<g>
</g>
<g>
</g>
<g>
</g>
<g>
</g>
</svg>
