<svg id="Layer_1" data-name="Layer 1" xmlns="http://www.w3.org/2000/svg" viewBox="0 0 187.3 198.1"><title>logo</title><g id="logo"><path d="M106,68.3a58.1,58.1,0,0,1-9.2-.2,8,8,0,0,0-1.5,2.1c-1.7,3.5-3.1,9.2-4,13.3-3.4,15-5.5,22.4-14.8,23a8.7,8.7,0,0,1-9.8-8.2c-.5-6,4.6-11.2,10.4-11.7a1.1,1.1,0,0,1,1.2,1,1,1,0,0,1-1,1.1c-4.6.4-8.8,4.8-8.4,9.4a6.6,6.6,0,0,0,7.4,6.3c9-.7,10-10.6,12.8-21.4,1-4.2,2.3-9.9,4.2-13.7l.9-1.5c-4.7-.5-11.8-2.5-17.7-2s-8.4,3.3-8,7.6,2.9,5,6.5,4.7a13.1,13.1,0,0,0,4.6-1.5h.6a1,1,0,0,1,1.1.9,1,1,0,0,1-.5,1,15.2,15.2,0,0,1-5.7,1.8c-4.9.4-8.5-2.1-8.9-6.7s3.3-9.3,10.2-9.9,13.4,1.7,19.5,2.3a16,16,0,0,1,9.4-4.1c3.1-.3,6.5.6,6.7,2.9S109.6,68,106,68.3Zm3.7-3.4c-.1-.8-2.7-1.1-4.2-1a15.7,15.7,0,0,0-6.4,2.2,51.6,51.6,0,0,0,6.7.1C108.3,66,109.8,65.6,109.7,64.9Z" transform="translate(-7.3 -14.1)" style="fill:#fff"/><path d="M122.9,88.3c0,.2-.1.3-.1.5V89c-1.7,4.4-4,10.8-8.7,11.2-2.5.2-3.9-1.4-4.1-3.9-1.9,3-4,4.6-6.2,4.8S99.3,99,99,96c-.5-6.6,3.8-18.8,10.1-19.4,2.2-.1,3.9.6,4.9,2.3l.7-2.3a1.3,1.3,0,0,1,1-.8,1,1,0,0,1,1.2,1.3l-2.1,7c-1.5,5.3-2.8,9.8-2.6,12s.6,2.1,1.7,2c3.3-.3,5.3-6,6.7-9.8v-.2a1.1,1.1,0,0,1,.9-.7h.5A1.4,1.4,0,0,1,122.9,88.3Zm-11-2.8,1-3.4c-.3-2.3-1.8-3.5-3.7-3.3-4.8.5-8.3,11.7-8,16.7.2,2.2.8,3.6,2.3,3.5C107.8,98.6,110.2,90.8,111.9,85.5Z" transform="translate(-7.3 -14.1)" style="fill:#fff"/><path d="M142.1,86.7c.1.1,0,.3,0,.4-2.8,7.8-5.2,11.1-8.7,11.4h-.1c-2.4.2-3.8-1.4-4-3.9a9.6,9.6,0,0,1,.2-3.3c.3-1.6,2-8.5,2.4-9.7-4.1-.9-4.7-1-5.9-1.5s-.4,1.4-3.9,10.5a.9.9,0,0,1-.9.7h-.5a1.1,1.1,0,0,1-.7-.9v-.5l3.5-9.1.5-1.6c-1.7-.9-2.9-2.1-3-4a3,3,0,0,1,2.9-3.5c1.9-.2,3.1,1,3.3,3s-.1,1.3-.6,3.3a46.7,46.7,0,0,0,5,1.4l2,.4a1.2,1.2,0,0,1,.8,1.4c-.6,1.7-2.5,9.1-2.7,10.4a9.4,9.4,0,0,0-.2,2.8c.1,1.3.6,2.1,1.7,2,2.6-.2,4.3-3.2,6.8-9.9a1.1,1.1,0,0,1,.9-.8h.5A1,1,0,0,1,142.1,86.7Zm-18-12.9a.8.8,0,0,0-.9,1,2.9,2.9,0,0,0,1.4,2.2,9.5,9.5,0,0,0,.4-2.1C124.9,74,124.5,73.7,124.1,73.8Z" transform="translate(-7.3 -14.1)" style="fill:#fff"/><path d="M14.3,128.9c.7-.1,1.4.2,1.4.8.1,3.5,2.8,4.9,8.1,4.3s13.9-5.5,18.5-8.3l3.3-2,.8-.2a2,2,0,0,1,1.1.2.7.7,0,0,1,.2.8L44,132.9c4.8-4.8,9.2-8.4,15.3-9.1s8.3,1.3,8.4,4.7-1.1,6.2-4.4,13.7-8,16.4-8,18.5,1.5,3.8,4.7,3.6c.8-.1,1.4.2,1.4.7s-.6.9-1.3,1c-4.9.6-7.4-1.3-7.5-5s3.9-9.9,8.1-19.1c3.3-7.4,4.5-10.7,4.4-13.1s-1.6-3.7-5.8-3.2c-6.6.7-12.7,7.5-17.9,13.4-7.3,16.7-8.2,21.1-14.4,21.8-2.4.2-3.5-.7-3.5-2.4-.1-3.2,6.7-10,8.6-12.1l6.8-7.8,5-11.5c-5.5,3.3-13.3,8-20,8.7s-11.3-1.5-10.8-5.8C13.1,129.3,13.7,129,14.3,128.9Zm20,18.2c-1.9,2-8.1,8.4-8.2,11.1,0,.6.3.8.9.8,3.1-.4,4.3-2.6,8.8-13.4A20.2,20.2,0,0,1,34.3,147.1Z" transform="translate(-7.3 -14.1)" style="fill:#fff"/><path d="M83.6,144.4c0,.2-.1.3-.1.5-3.1,5.2-6.5,10.2-12.2,10.8-3.3.4-5.1-1.1-5-3.2s4.6-12.3,7.4-17.7A1.4,1.4,0,0,1,75,134c.9-.1,1.8.2,1.4,1-6.2,13-7.4,15.3-7.3,17.2s.7,1.8,2.1,1.6c4.2-.4,7.2-5.4,9.6-9.4a1.6,1.6,0,0,1,1.3-.7h.6C83.2,143.8,83.6,144.1,83.6,144.4Zm-8.3-14.3c0-.8,1.1-1.6,2.4-1.8s2.3.4,2.3,1.3-.9,1.6-2.2,1.8S75.4,131,75.3,130.1Z" transform="translate(-7.3 -14.1)" style="fill:#fff"/><path d="M114.1,141a.8.8,0,0,1-.1.4c-3.8,6-7.4,10.3-13.7,11-3.2.4-5.1-.9-5.1-3.4-2.3,2.5-5.1,4.6-8.5,5s-5.7-1.6-5.7-4.2c-.2-5.9,6.2-17.2,14.4-18.2,3.1-.3,5.1.4,6.2,1.6l1.2-2.4,3.4-7.3a1.7,1.7,0,0,1,1.3-.8c1.1-.1,1.6.6,1.4,1.2s-8.3,17.5-8.8,18.8-2.1,5-2.1,6.2.7,1.8,2.3,1.6c4.8-.5,8-4.6,11-9.6a1.7,1.7,0,0,1,1.4-.7h.5C113.8,140.3,114.1,140.6,114.1,141Zm-15.7-1.6c.6-1,1-2,1.5-2.8v-.3c-.2-2-1.8-3.1-4.4-2.8-6.3.9-11.7,11.2-11.7,15.6.1,2,.7,3.2,2.7,3C92,151.5,95.8,144.3,98.4,139.4Z" transform="translate(-7.3 -14.1)" style="fill:#fff"/><path d="M142.6,137.7a.8.8,0,0,1-.2.4c-4.4,7.3-7.5,10.4-12.1,10.9s-4.9-1-5-3.2c-.1-4.3,5-10.1,4.9-14-.1-1.3-1-2.2-3.6-1.9-4.2.5-9.1,7.1-11.2,11.2l-4.4,9.4a2.1,2.1,0,0,1-1.9.9c-.7-.1-1.1-.6-.9-1.2,3.3-6.8,7.4-15.4,9.8-20.5a1.5,1.5,0,0,1,1.4-.8c1-.1,1.7.4,1.4,1.1l-.5.9a13.1,13.1,0,0,1,6.2-2.9c4.9-.5,6.5,1.1,6.5,3.5.2,4-4.9,10.5-4.8,13.9,0,1.3.6,1.9,2.1,1.7,3.1-.4,5.5-3,9.5-9.4a1.7,1.7,0,0,1,1.2-.8h.7A1.1,1.1,0,0,1,142.6,137.7Z" transform="translate(-7.3 -14.1)" style="fill:#fff"/><path d="M160.3,142.7a9.9,9.9,0,0,1-5.2-.7c-2.4,2.6-5.8,4.8-9.1,5.2s-6-1.3-6-3.9c-.2-5.2,3.2-9.9,5.3-12.6s6.1-5.4,9.5-5.8,6.8,1.3,6.9,4-1.9,7.5-5,11.3a4.7,4.7,0,0,0,3.5.6c2.9-.3,5.2-2.3,7.5-6.3a1.4,1.4,0,0,1,1.2-.7c1.1-.2,1.8.4,1.4,1.1C167.5,139.8,164.4,142.2,160.3,142.7Zm-4.4-6.2c-.1.3-.1.7-.2,1,2-3,3.2-6.3,3.1-8.3s-1.7-2.7-4.1-2.4-4.9,2.1-6.8,4.6-5.2,6.9-5,11.5c0,1.6.9,2.7,3,2.4s5.3-2.4,7.5-4.8a5.1,5.1,0,0,1-.3-4.2,1.8,1.8,0,0,1,1.4-.9C155.5,135.3,156.2,135.8,155.9,136.5Z" transform="translate(-7.3 -14.1)" style="fill:#fff"/><path d="M184.3,132.9c0,.2-.1.3-.1.5-3.1,5.2-6.5,10.2-12.2,10.8-3.3.4-5.1-1.1-5-3.2s4.6-12.3,7.5-17.7a1.2,1.2,0,0,1,1.2-.8c.9-.1,1.8.2,1.4,1-6.2,13-7.3,15.3-7.3,17.2s.7,1.8,2.1,1.6c4.2-.4,7.2-5.4,9.6-9.4a1.7,1.7,0,0,1,1.4-.7h.5C183.9,132.3,184.3,132.6,184.3,132.9Zm-8.2-14.3c0-.8,1-1.6,2.3-1.8s2.3.4,2.4,1.3-1,1.6-2.3,1.8S176.1,119.5,176.1,118.6Z" transform="translate(-7.3 -14.1)" style="fill:#fff"/><path d="M102.9,113.5v.2h0c-.9,1.7-2.3,4.1-4.5,4.2s-1.8-.5-1.7-1.5a5.1,5.1,0,0,1-3.1,1.8c-1.4.1-2-.8-2-2s2.6-7.1,5.6-7.2a2.2,2.2,0,0,1,2.2.9,3.9,3.9,0,0,1,.4-.9.5.5,0,0,1,.5-.3c.4,0,.6.3.4.5l-1.2,2.6c-1,2-1.8,3.7-1.8,4.6s.2.8.7.7,2.7-2.2,3.6-3.6h0a.5.5,0,0,1,.5-.3h.2A.3.3,0,0,1,102.9,113.5ZM98,112.3l.6-1.2a1.3,1.3,0,0,0-1.6-1.3c-2.2.1-4.4,4.4-4.5,6.2s.2,1.4,1,1.4S96.9,114.3,98,112.3Z" transform="translate(-7.3 -14.1)" style="fill:#fff"/><path d="M112.6,113h0c-1.7,3-2.9,4.2-4.6,4.3a1.4,1.4,0,0,1-1.7-1.5c0-1.8,2-4.1,2-5.8s-.3-1-1.2-.9-3.4,2.7-4.2,4.4l-1.8,3.9a.8.8,0,0,1-.7.3c-.3-.1-.4-.3-.3-.5l3.9-8.5.5-.3a.5.5,0,0,1,.5.6l-.2.3a3.7,3.7,0,0,1,2.3-1c1.8-.1,2.3.6,2.3,1.7s-2,4.3-2.1,5.7.2.8.8.8,2-1.1,3.6-3.7c.1-.2.2-.3.4-.3h.2C112.5,112.7,112.7,112.8,112.6,113Z" transform="translate(-7.3 -14.1)" style="fill:#fff"/><path d="M123.2,112.4v.2c-1.5,2.4-2.9,4.1-5.1,4.3s-1.8-.6-1.8-1.6a4.4,4.4,0,0,1-3.1,1.8,1.7,1.7,0,0,1-2-1.9c.1-2.5,2.6-7.1,5.6-7.3a2,2,0,0,1,2.1.9l.5-1.1,1.4-2.9a.5.5,0,0,1,.5-.3c.4,0,.5.3.4.5s-3.3,7.2-3.5,7.8a8.5,8.5,0,0,0-.9,2.5c0,.5.2.8.8.8s3-1.8,4.2-3.8a.5.5,0,0,1,.5-.3h.2A.3.3,0,0,1,123.2,112.4Zm-5.6-1.1.6-1.1V110c-.1-.9-.6-1.3-1.6-1.3s-4.4,4.4-4.5,6.3.2,1.4,1,1.3S116.5,113.3,117.6,111.3Z" transform="translate(-7.3 -14.1)" style="fill:#fff"/><path d="M59.7,25.8A11.1,11.1,0,0,0,62,27.7a11.8,11.8,0,0,1,3.7,4c1.7,3.3.2,7-3.2,8.7s-6.2.6-7.5-2a5.3,5.3,0,0,1,2.2-7,3.3,3.3,0,0,1,4.7,1.5.5.5,0,0,1,.2.4.5.5,0,0,1-.3.5.4.4,0,0,1-.7-.2,2.4,2.4,0,0,0-3.4-1.3A4.3,4.3,0,0,0,56,38c1.1,2.1,3.7,2.7,6.1,1.5a5.5,5.5,0,0,0,2.7-7.4,14.9,14.9,0,0,0-3.5-3.6,16.4,16.4,0,0,1-2.4-2.1l-1.1.6a7.5,7.5,0,0,1-8.4-.4c0-.1-.1-.1-.1-.2s.1-.6.3-.7h.5a6.3,6.3,0,0,0,7.2.5l.9-.6-.3-.5c-.7-1.5-.6-3.6.9-4.4a1.5,1.5,0,0,1,2.2.9C61.6,22.9,61.1,24.4,59.7,25.8Zm-.5-4.1c-1,.4-.8,1.9-.3,2.9l.2.4c1.5-1.7,1.1-2.6,1-2.9S59.5,21.5,59.2,21.7Z" transform="translate(-7.3 -14.1)" style="fill:#fff"/><path d="M78.1,27.1c.1.1.1.1.1.2h0c-.3,2.2-.7,5.5-2.8,6.2A1.8,1.8,0,0,1,73,32.3a4.4,4.4,0,0,1-2.3,3c-1.3.4-2.3-.4-2.8-1.8-1-3-.4-9.2,2.5-10.2a2.5,2.5,0,0,1,2.6.5V22.6a.7.7,0,0,1,.4-.5.5.5,0,0,1,.7.5l-.2,3.5A26.2,26.2,0,0,0,74,32c.3.7.6.9,1.1.7s1.8-3.4,2-5.4h0a.6.6,0,0,1,.3-.5h.3C77.9,26.8,78.1,26.9,78.1,27.1Zm-5.4,0V25.4a1.6,1.6,0,0,0-2.1-1.1c-2.2.8-2.6,6.4-1.8,8.7s.7,1.6,1.4,1.3S72.5,29.7,72.7,27.1Z" transform="translate(-7.3 -14.1)" style="fill:#fff"/><path d="M86.8,25.3v.2c-.2,1.9-1.3,3.9-3.1,4.3a2.2,2.2,0,0,1-1.8-.2c-.9,1.8-1.5,2.6-2.5,2.8a1.7,1.7,0,0,1-2.2-1.5c-.4-1.6.2-4.5.9-9.6a.8.8,0,0,1,.5-.5.6.6,0,0,1,.6.6c-.9,6.1-1.2,8.3-1,9.2s.4,1,1,.8,1.5-1.5,1.8-2.6a4.2,4.2,0,0,1-.5-2.2.7.7,0,0,1,.4-.5.5.5,0,0,1,.7.5v.6c.2-.5,1.8-6.4,2-7.3l.4-.4h.2c.2.1.4.3.4.4a.2.2,0,0,1,0,.3c-.4,1.8-2,7.6-2.3,8.4a1.5,1.5,0,0,0,1.3.2c1.3-.3,2.1-2.1,2.2-3.5a.4.4,0,0,1,.4-.4h.2A.4.4,0,0,1,86.8,25.3Z" transform="translate(-7.3 -14.1)" style="fill:#fff"/><path d="M94.9,24.3v.2c-1.2,3.7-2.9,5.6-5.4,5.9a3,3,0,0,1-3.7-2.8c-.2-3.1,1.8-8.5,4.7-8.9,1.3-.1,2.2.4,2.4,1.5.3,2.6-3.3,4.6-6,5.6a8.5,8.5,0,0,0,0,1.6,2,2,0,0,0,2.5,2c2.1-.2,3.5-1.8,4.5-5.1a.6.6,0,0,1,.7-.4A.8.8,0,0,1,94.9,24.3Zm-3.2-3.9c-.1-.7-.6-.7-1.2-.7s-2.8,3-3.4,4.9C89.1,23.7,91.9,22.1,91.7,20.4Z" transform="translate(-7.3 -14.1)" style="fill:#fff"/><path d="M107.8,24.3v.2c-1.6,3-3.1,5.1-5.4,5s-1.8-.9-1.8-2.1a16.7,16.7,0,0,1,1.6-4.9l1.4-3.5H102a.5.5,0,0,1-.5-.5.6.6,0,0,1,.6-.5H104c.1-.1,1.4-3.4,1.5-3.5s.2-.4.5-.4a.5.5,0,0,1,.5.7,32.6,32.6,0,0,0-1.3,3.3h1.6a.6.6,0,0,1,.6.5.6.6,0,0,1-.6.5h-2.1c-.1.4-.6,1.5-1.5,3.8s-1.5,3.9-1.5,4.6.2,1,.7,1,3.1-1.9,4.4-4.4a.5.5,0,0,1,.5-.3h.2C107.7,24,107.8,24.1,107.8,24.3Z" transform="translate(-7.3 -14.1)" style="fill:#fff"/><path d="M117.9,25.4c0,.1,0,.1-.1.2-2.1,3.5-3.4,4.8-5.1,4.6s-1.7-1-1.6-2.2,2.6-5.1,2.8-7a1.1,1.1,0,0,0-1.1-1.4,3.7,3.7,0,0,0-2.2,1.2c-1.8,1.7-2.1,2.6-5,8.3a.6.6,0,0,1-.8.2.5.5,0,0,1-.2-.6l7.1-13.9a.5.5,0,0,1,.5-.3.5.5,0,0,1,.4.8l-2.1,4.2a3.4,3.4,0,0,1,2.4-.9,2.1,2.1,0,0,1,2.1,2.5c-.3,1.9-2.6,5.3-2.8,7s.1,1,.6,1.1,2.3-1.1,4.1-4.1a.5.5,0,0,1,.5-.3h.3A.8.8,0,0,1,117.9,25.4Z" transform="translate(-7.3 -14.1)" style="fill:#fff"/><path d="M125.8,27.3h-.1c-2.4,3.1-4.6,4.3-7.1,3.8a3,3,0,0,1-2.5-3.9c.9-3,4.5-7.4,7.4-6.8,1.2.2,2,1,1.7,2.1s-4.6,3.3-7.4,3.4a5.8,5.8,0,0,0-.6,1.5c-.4,1.3.2,2.3,1.7,2.7s3.9-.6,5.9-3.4a.8.8,0,0,1,.8-.1A1.1,1.1,0,0,1,125.8,27.3Zm-1.6-4.9c.1-.6-.4-.8-.9-.9s-3.7,1.8-4.9,3.4C120.6,24.7,123.8,24.2,124.2,22.4Z" transform="translate(-7.3 -14.1)" style="fill:#fff"/><path d="M143.1,33.8a.3.3,0,0,1-.1.2c-2.6,2.2-4.7,3.6-6.8,2.7s-1.4-1.4-.9-2.7c-1.3.8-2.6,1.3-3.8.8s-1.4-1.9-.8-3.2c1.2-3,5.8-7.2,8.6-6.1a2.6,2.6,0,0,1,1.6,2.1l.9-1,2.7-2.9a.5.5,0,0,1,.6-.1.5.5,0,0,1,.2.8l-7,7.5a18.3,18.3,0,0,0-2.1,2.6c-.2.6-.2,1,.4,1.3s3.6-.7,5.6-2.6a.6.6,0,0,1,.6,0h.2C143.1,33.4,143.2,33.7,143.1,33.8Zm-4.6-3.9,1.1-1c0-.1.1-.1.1-.2a1.5,1.5,0,0,0-.8-2.2c-2.2-.8-6.2,3.1-7.2,5.3s-.5,1.7.2,2S136.6,31.8,138.5,29.9Z" transform="translate(-7.3 -14.1)" style="fill:#fff"/><path d="M151.9,39.1h-.2c-1.9,1.3-4.5,3.2-6.5,2.1s-1.1-1.6-.5-2.7c-1.6.7-2.9.8-3.8.2s-1.2-2-.4-3.2c1.6-2.8,6.6-6.5,9.2-5a2.5,2.5,0,0,1,1.4,2.2l.9-.7a.6.6,0,0,1,.6,0,.5.5,0,0,1,0,.8l-2.7,2.2c-2,1.7-3.8,3.1-4.3,4s-.3,1,.1,1.3,3.7-.9,5.4-2.1h0a.7.7,0,0,1,.6-.1c0,.1.1.1.2.2A.6.6,0,0,1,151.9,39.1ZM148.4,35l1.3-1.1c.5-1,.3-1.9-.5-2.3s-6.5,2.4-7.7,4.4-.7,1.7-.1,2.1S146.3,36.6,148.4,35Z" transform="translate(-7.3 -14.1)" style="fill:#fff"/><path d="M156.1,42.3H156c-3,1.7-5.3,2.6-7.2,1.3a1.8,1.8,0,0,1-.4-2.7,17.4,17.4,0,0,1,4.1-3.3l3.1-2.2-1.3-.9c-.3-.1-.3-.4-.2-.7a.6.6,0,0,1,.8-.1l1.5,1.1,3.2-2.2a.4.4,0,0,1,.6,0,.5.5,0,0,1,0,.8l-2.8,2,1.3,1a.5.5,0,0,1,.2.7.5.5,0,0,1-.8.1l-1.6-1.1-3.4,2.3c-2.5,1.7-3.4,2.5-3.8,3.1s-.3,1,.1,1.2,3.6.1,6-1.3a.7.7,0,0,1,.6.1h.2A1.3,1.3,0,0,1,156.1,42.3Z" transform="translate(-7.3 -14.1)" style="fill:#fff"/><path d="M162.3,47.4h-.2c-3.5,1.7-6,1.8-7.9.2a3.1,3.1,0,0,1-.4-4.7c2.1-2.3,7.3-4.6,9.6-2.7a1.8,1.8,0,0,1,.5,2.7c-1.6,2-5.5.9-8.1-.4a6.5,6.5,0,0,0-1.2,1.1c-1,1-.9,2.2.3,3.2s3.7,1.2,6.7-.3a.8.8,0,0,1,.8.2C162.4,47,162.4,47.3,162.3,47.4Zm.8-5c.4-.6.1-1-.4-1.3s-4-.1-5.8.9C158.9,42.8,161.9,43.8,163.1,42.4Z" transform="translate(-7.3 -14.1)" style="fill:#fff"/><path d="M58.6,187.1l-2.1-1.5a25.5,25.5,0,0,0-3.9,2.8l-.5.5,1.4.9c.2.1.2.3.1.5a.3.3,0,0,1-.5.1l-1.7-1c-3.8,3-5.2,4.2-7.9,2.6a3,3,0,0,1-1-4.5,4,4,0,0,1,5.4-1.1.4.4,0,0,1,.2.5.5.5,0,0,1-.6.1,3.3,3.3,0,0,0-4.4,1,2.3,2.3,0,0,0,.8,3.3c2.2,1.4,3.5.2,6.8-2.3l-.9-.6c-.2-.1-.2-.3-.1-.5s.3-.2.5-.1l1.1.7.8-.7a30.8,30.8,0,0,1,3.8-2.8l-1.4-1.5a14.2,14.2,0,0,0-2.9-2.6,2.6,2.6,0,0,0-3.3.8,1.9,1.9,0,0,0,.8,2.8l1.7.5h.1c.3.1.2.4.2.5l-.4.2a6.8,6.8,0,0,1-2-.7,2.7,2.7,0,0,1-1.1-3.8,3.2,3.2,0,0,1,4.4-1,11,11,0,0,1,3,2.7l1.7,1.7a4.5,4.5,0,0,1,3.4.5c.8.5,1.3,1.2.9,1.8S59.5,187.6,58.6,187.1Zm1.1-1.2a2.9,2.9,0,0,0-2.2-.5l1.5,1c.5.3,1.1.5,1.3.2S60,186.1,59.7,185.9Z" transform="translate(-7.3 -14.1)" style="fill:#fff"/><path d="M60.9,195.7h-.1c-2.2,1.8-4,2.3-5.7,1.5a2.4,2.4,0,0,1-1.2-3.3c1.2-2,4.6-4.6,6.5-3.6s1.3,1.1.9,1.8-3.9,1.6-5.9,1.2a2.5,2.5,0,0,0-.8,1,1.5,1.5,0,0,0,.8,2.2c1.4.7,2.9.3,4.9-1.4a.3.3,0,0,1,.5.1A.6.6,0,0,1,60.9,195.7Zm-.3-3.8c.2-.4-.1-.7-.5-.9s-3,.7-4.1,1.7C57.6,193,60,193.1,60.6,191.9Z" transform="translate(-7.3 -14.1)" style="fill:#fff"/><path d="M68,198.4l-.6.6c-1,.9-2,1.4-3.1.9a1.7,1.7,0,0,1-1.1-.9,3.4,3.4,0,0,1-3.2.5c-.9-.3-1.2-1-.8-2a9.4,9.4,0,0,1,1.4-1.9l4.4-5,.8-.9c.2-.2.3-.2.5-.1a.4.4,0,0,1,.1.6l-.8.9-1.5,1.8a2.8,2.8,0,0,1,2-.2c1.1.4,1.1,1.4.7,2.5a10.7,10.7,0,0,1-2.8,3.3h-.1a1.1,1.1,0,0,0,.7.6c.8.4,1.6-.1,2.3-.7s.6-.7.9-.6h.1A.2.2,0,0,1,68,198.4Zm-3.7-1.3c-.1.1-.1.2-.2.2a6.4,6.4,0,0,0,1.9-2.5c.3-.6.4-1.1-.2-1.4s-3.5,1.6-4.9,3a4,4,0,0,0-.9,1.4c-.3.5-.2.8.3,1a3.4,3.4,0,0,0,2.8-.6,2.2,2.2,0,0,1,.1-.8,3.5,3.5,0,0,1,.5-.8c.1-.1.3-.2.4-.1S64.5,196.9,64.3,197.1Z" transform="translate(-7.3 -14.1)" style="fill:#fff"/><path d="M76,200.7v.2c-2,2.2-3.2,3-4.4,2.6s-1-.8-.9-1.6a2.9,2.9,0,0,1-2.5.6h0a1.6,1.6,0,0,1-1.2-2.3c.3-.9,1-1.8,4.1-5.5.1-.2.2-.2.4-.2a.4.4,0,0,1,.2.6c-3.4,4.3-3.7,4.6-3.9,5.3a.9.9,0,0,0,.6,1.4,2.8,2.8,0,0,0,2.6-1.2,58.1,58.1,0,0,0,3.9-4.8c.1-.1.3-.2.4-.1a.4.4,0,0,1,.3.6l-1.9,2.3a21.9,21.9,0,0,0-2.2,3.3q-.2.8.3.9c.9.2,1.9-.5,3.6-2.4a.4.4,0,0,1,.4-.2h.2A.6.6,0,0,1,76,200.7Z" transform="translate(-7.3 -14.1)" style="fill:#fff"/><path d="M84.1,202.4H84c-1,1.3-2.5,3.3-4.1,2.9a1.3,1.3,0,0,1-1-1.7,3.5,3.5,0,0,1-2.6,1,1.7,1.7,0,0,1-1.1-2.2c.5-2.4,3.3-6.1,5.5-5.6a1.7,1.7,0,0,1,1.4,1.3l.5-.8c.1-.1.3-.2.4-.1a.4.4,0,0,1,.3.5l-1.5,2.2a17.1,17.1,0,0,0-2.1,3.8c-.2.6,0,.8.3.9s2.5-1.5,3.4-2.7h0c.1-.2.2-.2.4-.2H84C84.1,202.1,84.1,202.2,84.1,202.4Zm-3.4-2.1.7-1.1a1.2,1.2,0,0,0-.9-1.5c-1.7-.3-4.1,3.2-4.5,4.9s-.1,1.3.4,1.4S79.6,201.9,80.7,200.3Z" transform="translate(-7.3 -14.1)" style="fill:#fff"/><path d="M91.7,203.3h-.1c-1.6,2.5-2.7,3.5-3.9,3.3h0a1.2,1.2,0,0,1-1.1-1.6,3,3,0,0,1,.3-1.2c.2-.5,1.4-2.8,1.6-3.2l-1.9-.9-2.2,3.3c-.1.2-.2.2-.4.2a.1.1,0,0,1-.1-.1c-.2,0-.2-.2-.2-.3v-.2l2-2.9.3-.5a1.8,1.8,0,0,1-.8-1.6,1.1,1.1,0,0,1,1.3-1,1,1,0,0,1,.9,1.3c0,.3-.1.4-.4,1.1l1.6.8.6.3a.5.5,0,0,1,.2.6l-1.8,3.4-.3,1c0,.4.1.7.5.8s1.7-.8,3.1-3l.4-.2h.2A.5.5,0,0,1,91.7,203.3Zm-5.3-5.9c-.2,0-.3.1-.4.3a1.6,1.6,0,0,0,.3.9c.2-.2.3-.6.4-.7S86.6,197.4,86.4,197.4Z" transform="translate(-7.3 -14.1)" style="fill:#fff"/><path d="M100.1,203.7a.1.1,0,0,1-.1.1c-1.3,2.6-2.9,4.2-5.7,4.8q-1.6,3.6-3.6,3.6a1.7,1.7,0,0,1-1.8-1.8c.1-1.2,1.1-1.9,3.3-2.2l1.5-.2.6-1.3a1.8,1.8,0,0,1-1.5.5,1.7,1.7,0,0,1-1.9-2,16.3,16.3,0,0,1,1.4-3.6l1.2-2.7.4-.2c.3,0,.5.3.4.5l-1.2,2.7c-1,2.2-1.4,2.7-1.4,3.3s.1,1.2,1.2,1.3,2.3-1.8,3.1-3.8l1.6-3.5a.5.5,0,0,1,.4-.3.5.5,0,0,1,.4.6c-.4.7-.9,1.9-1.6,3.4L95,207l-.3.7a7.1,7.1,0,0,0,4.6-4.2.4.4,0,0,1,.4-.2h.2A.5.5,0,0,1,100.1,203.7Zm-6.7,5.1H92.3c-1.7.2-2.5.7-2.6,1.5a.9.9,0,0,0,1,1C91.7,211.5,92.6,210.6,93.4,208.8Z" transform="translate(-7.3 -14.1)" style="fill:#fff"/><path d="M107.8,204.6l-1.4,1.3,1.8-.3a11.1,11.1,0,0,1,4,.2c.2,0,.3.2.4.3s-.3.5-.5.4a17.3,17.3,0,0,0-3.8-.2,11.5,11.5,0,0,0-3.2.8h-.3l-.4-.2a.5.5,0,0,1,.3-.5l2.6-2.3c2.3-2.2,5.4-5.7,5.2-8.1s-1-1.5-2.1-1.4a2.9,2.9,0,0,0-2.4,2.5c0,.2-.2.3-.4.3a.5.5,0,0,1-.4-.5,3.6,3.6,0,0,1,3.1-3c1.7-.2,2.9.6,3,2S110.3,202.2,107.8,204.6Z" transform="translate(-7.3 -14.1)" style="fill:#fff"/><path d="M122.5,192.3l-1.3,7.5.5-.2a.4.4,0,0,1,.6,0,.4.4,0,0,1,0,.5,3.3,3.3,0,0,1-1.2.5l-.7,4.5a.5.5,0,0,1-.5.3c-.2,0-.3-.2-.3-.4l.7-4.1c-1.7.4-4.3.7-5.4.9h-.3c-.2-.1-.3-.3-.1-.5a24.6,24.6,0,0,0,3.7-8.3.5.5,0,0,1,.5-.3c.2.1.4.3.3.5a25.2,25.2,0,0,1-3.4,7.7c1.1-.2,3.1-.4,4.8-.8l1.3-7.9c0-.2.2-.3.5-.3S122.5,192.1,122.5,192.3Z" transform="translate(-7.3 -14.1)" style="fill:#fff"/><path d="M129.3,199.3v.2c-.5,2.4-1.1,4.2-2.8,4.6a1.3,1.3,0,0,1-1.7-1.1,12.5,12.5,0,0,1,.1-3.8l.3-2.8-1.1.3c-.3.1-.5,0-.5-.2s.1-.4.3-.5l1.4-.4.3-2.8a.3.3,0,0,1,.3-.3c.2-.1.5.1.4.3s-.2,2.2-.2,2.6l1.2-.3c.2-.1.4.1.5.2s-.1.5-.3.5l-1.5.4c0,.4-.1,1.3-.3,3s-.3,3.1-.1,3.6.4.7.7.6,1.8-2,2.2-4.1l.3-.3h.2Q129.3,199.1,129.3,199.3Z" transform="translate(-7.3 -14.1)" style="fill:#fff"/><path d="M136.7,196.8v.2c-.4,3-.9,4.3-2.1,4.7a1.3,1.3,0,0,1-1.7-1c-.5-1.6.1-4.3-.3-5.6s-.5-.8-1.2-.5-.8.7-1.1,1.4-.6,2.4-.9,7.1a.4.4,0,1,1-.8,0c.3-5,.5-9.6.6-11.5l.3-.3c.2-.1.5.1.5.4s-.1,1.7-.2,3.5a2.7,2.7,0,0,1,1.4-1.4,1.6,1.6,0,0,1,2.2,1.1c.4,1.3-.2,4.3.2,5.5s.4.7.8.5,1.2-1.4,1.5-4c.1-.1.1-.3.3-.3h.2C136.5,196.6,136.7,196.7,136.7,196.8Z" transform="translate(-7.3 -14.1)" style="fill:#fff"/><path d="M138.8,199.9l-.3,1.2a.3.3,0,0,1-.3.3c-.1,0-.2-.1-.2-.3v-.6c-.3-.1-.5-.2-.6-.5s.1-.6.5-.8a.7.7,0,0,1,.8.5Z" transform="translate(-7.3 -14.1)" style="fill:#fff"/><path d="M148.5,192.8l-.8,1.7,1.5-1A20,20,0,0,1,153,192l.4.2c.2.2,0,.5-.2.6a18.4,18.4,0,0,0-3.6,1.3,14,14,0,0,0-2.6,2.1c-.1,0-.2,0-.2.1s-.5.1-.6-.1a1.1,1.1,0,0,1,.1-.5,30.9,30.9,0,0,0,1.4-3.2c1.3-2.9,2.7-7.4,1.5-9.5s-1.5-.9-2.5-.3a2.7,2.7,0,0,0-1.1,3.2.4.4,0,0,1-.4.4c-.2.1-.4-.1-.4-.3a3.6,3.6,0,0,1,1.5-4c1.5-.8,2.9-.6,3.6.6S149.8,189.6,148.5,192.8Z" transform="translate(-7.3 -14.1)" style="fill:#fff"/><path d="M158.5,189.6c-1.3.9-2.6.2-3.6-1.1-2.2-3.1-3.5-9.7-.7-11.8s2.9-.6,3.9.8C160.5,181,161.4,187.5,158.5,189.6Zm-3.8-12.4c-2.4,1.7-1.2,8.2.8,10.8s1.7,1.6,2.6,1c2.5-1.9,1.5-8-.6-11C156.7,176.9,155.7,176.5,154.7,177.2Z" transform="translate(-7.3 -14.1)" style="fill:#fff"/><path d="M162.9,171.1l4,11.8a.4.4,0,1,1-.8.3l-3.3-9.9c0,1.9-.1,3.9-1.1,4.8a1,1,0,0,1-1.5,0,1.6,1.6,0,0,1-.3-.6.6.6,0,0,1,.1-.4h.6l.2.4a.2.2,0,0,0,.4-.1c.6-.6.7-2,.8-3.6s-.2-3.1.1-3.4h.5Z" transform="translate(-7.3 -14.1)" style="fill:#fff"/><path d="M170,170.4c-.1.2-.3.2-.5,0a.3.3,0,0,1,0-.5,3.2,3.2,0,0,0-.3-3.7c-.9-.8-1.8-.2-2.6.6s-1.5,3.1-.3,4.2,1.9.6,3,.2,3.1-.7,4.3.5,1,4.4-.8,6.3a2.6,2.6,0,0,1-3.8.3c-1.6-1.5-1.6-3.7-.7-6a2.7,2.7,0,0,1-2.6-.7c-1.5-1.4-1.2-3.8.3-5.3s2.7-1.7,3.7-.6S171,169.4,170,170.4Zm-.4,7.3c.8.8,1.8.6,2.7-.2s2-4,.7-5.3-2.1-.6-3.7-.2C168.3,174.2,168.1,176.3,169.6,177.7Z" transform="translate(-7.3 -14.1)" style="fill:#fff"/><path d="M26.9,165.7a88.2,88.2,0,0,0,12.4,12.8" transform="translate(-7.3 -14.1)" style="fill:none;stroke:#fff;stroke-miterlimit:10;stroke-width:1.13386px"/><path d="M48.1,37.7c-22.3,15-37.8,39.2-40,67.2a86.4,86.4,0,0,0,5.1,36.7" transform="translate(-7.3 -14.1)" style="fill:none;stroke:#fff;stroke-miterlimit:10;stroke-width:1.13386px"/><path d="M179.1,158.8A86.8,86.8,0,0,0,166.8,47.2" transform="translate(-7.3 -14.1)" style="fill:none;stroke:#fff;stroke-miterlimit:10;stroke-width:1.13386px"/><path d="M96.7,169.8c1-1.8,4.2-4.7,6.3-6.6a1,1,0,0,1,1.7.9c-.4,2.7-1.3,6.9-2.3,8.7s-4.1,4.4-5.7,3.6S95.1,172.7,96.7,169.8Z" transform="translate(-7.3 -14.1)" style="fill:#fff"/><path d="M107.5,173.9c0-2,1.2-6.1,2.1-8.7a1,1,0,0,1,1.9-.1c1.1,2.6,2.5,6.5,2.6,8.6s-1.3,5.8-3.1,5.9S107.6,177.1,107.5,173.9Z" transform="translate(-7.3 -14.1)" style="fill:#fff"/><path d="M119.1,172.2c-1.1-1.7-2.1-5.8-2.7-8.5a1,1,0,0,1,1.6-1c2.2,1.7,5.6,4.4,6.7,6.2s1.9,5.7.3,6.6S120.9,174.9,119.1,172.2Z" transform="translate(-7.3 -14.1)" style="fill:#fff"/><path d="M120.8,52.2c-1.1,1.8-4.2,4.7-6.4,6.6a1,1,0,0,1-1.6-.9c.4-2.7,1.2-6.9,2.2-8.7s4.2-4.4,5.8-3.6S122.4,49.3,120.8,52.2Z" transform="translate(-7.3 -14.1)" style="fill:#fff"/><path d="M109.9,48.1c.1,2-1.2,6.1-2.1,8.7a1,1,0,0,1-1.9.1c-1-2.6-2.4-6.5-2.5-8.6s1.3-5.8,3.1-5.9S109.8,44.9,109.9,48.1Z" transform="translate(-7.3 -14.1)" style="fill:#fff"/><path d="M98.3,49.8c1.2,1.7,2.2,5.8,2.8,8.5a1,1,0,0,1-1.6,1c-2.3-1.7-5.6-4.5-6.7-6.2s-1.9-5.7-.4-6.6S96.6,47.1,98.3,49.8Z" transform="translate(-7.3 -14.1)" style="fill:#fff"/><path d="M35.8,88.8c1.6,1.4,3.8,5,5.1,7.4.5.8-.4,1.7-1.3,1.4-2.6-1-6.6-2.7-8.2-4.1s-3.5-4.9-2.3-6.2S33.3,86.7,35.8,88.8Z" transform="translate(-7.3 -14.1)" style="fill:#fff"/><path d="M29,98c2.1.4,5.9,2.5,8.3,3.9a1,1,0,0,1-.4,1.8c-2.8.4-7.2.9-9.3.5s-5.6-2.6-5.2-4.3S25.8,97.4,29,98Z" transform="translate(-7.3 -14.1)" style="fill:#fff"/><path d="M27.9,109.2c2-.6,6.4-.7,9.3-.6a1,1,0,0,1,.6,1.7c-2.3,1.7-5.9,4.2-7.9,4.9s-6.2.5-6.8-1.2S24.7,110.2,27.9,109.2Z" transform="translate(-7.3 -14.1)" style="fill:#fff"/><path d="M179.4,113.2c-2.1-.3-6-2.3-8.5-3.6a1,1,0,0,1,.3-1.8c2.9-.5,7.2-1.1,9.3-.8s5.7,2.3,5.4,4S182.7,113.7,179.4,113.2Z" transform="translate(-7.3 -14.1)" style="fill:#fff"/><path d="M180,101.9c-2,.8-6.4,1-9.3,1.1a.9.9,0,0,1-.6-1.7c2.2-1.8,5.6-4.5,7.6-5.2s6.2-.8,6.8.8S183.1,100.8,180,101.9Z" transform="translate(-7.3 -14.1)" style="fill:#fff"/><path d="M174.7,92c-1.4,1.6-5.1,3.9-7.6,5.3-.8.5-1.8-.3-1.4-1.1,1-2.6,2.6-6.6,3.9-8.2s5-3.6,6.4-2.5S176.8,89.5,174.7,92Z" transform="translate(-7.3 -14.1)" style="fill:#fff"/></g></svg>