<svg id="Layer_1" data-name="Layer 1" xmlns="http://www.w3.org/2000/svg" viewBox="0 0 187.27 213.27"><title>logo</title><g id="logo"><text transform="matrix(1.04, -0.09, 0.08, 1, 59.91, 99.51)" style="font-size:50.52516174316406px;fill:#fff;font-family:Nickainley-Normal, Nickainley">Tar</text><text transform="matrix(1.51, -0.17, 0.03, 1, 6.76, 157.52)" style="font-size:44.921051025390625px;fill:#fff;font-family:Nickainley-Normal, Nickainley;letter-spacing:0.02000412293171321em">Nidnoi</text><text transform="matrix(1.28, -0.07, -0.02, 1, 84.25, 113.56)" style="font-size:19.099790573120117px;fill:#fff;font-family:Nickainley-Normal, Nickainley">and</text><text transform="matrix(0.93, -0.47, 0.44, 0.89, 49.51, 37.21)" style="font-size:24.239519119262695px;fill:#fff;font-family:Nickainley-Normal, Nickainley">S</text><text transform="matrix(0.99, -0.34, 0.32, 0.94, 61.52, 31.2)" style="font-size:24.239519119262695px;fill:#fff;font-family:Nickainley-Normal, Nickainley">a</text><text transform="matrix(1.02, -0.24, 0.21, 0.97, 70.74, 28.01)" style="font-size:24.239519119262695px;fill:#fff;font-family:Nickainley-Normal, Nickainley">v</text><text transform="matrix(1.03, -0.14, 0.12, 0.99, 78.84, 26.12)" style="font-size:24.239519119262695px;fill:#fff;font-family:Nickainley-Normal, Nickainley">e</text><text transform="matrix(1.04, -0.05, 0.04, 1, 86.4, 25.08)" style="font-size:24.239519119262695px;fill:#fff;font-family:Nickainley-Normal, Nickainley"> </text><text transform="matrix(1.04, 0.02, -0.04, 1, 93.66, 24.75)" style="font-size:24.239519119262695px;fill:#fff;font-family:Nickainley-Normal, Nickainley">t</text><text transform="matrix(1.03, 0.11, -0.12, 0.99, 98.58, 24.74)" style="font-size:24.239519119262695px;fill:#fff;font-family:Nickainley-Normal, Nickainley">h</text><text transform="matrix(1.01, 0.21, -0.22, 0.98, 108.12, 25.77)" style="font-size:24.239519119262695px;fill:#fff;font-family:Nickainley-Normal, Nickainley">e</text><text transform="matrix(0.99, 0.3, -0.3, 0.96, 115.56, 27.31)" style="font-size:24.239519119262695px;fill:#fff;font-family:Nickainley-Normal, Nickainley"> </text><text transform="matrix(0.95, 0.4, -0.4, 0.92, 122.42, 29.26)" style="font-size:24.239519119262695px;fill:#fff;font-family:Nickainley-Normal, Nickainley">d</text><text transform="matrix(0.9, 0.51, -0.51, 0.87, 131.91, 33.24)" style="font-size:24.239519119262695px;fill:#fff;font-family:Nickainley-Normal, Nickainley">a</text><text transform="matrix(0.85, 0.59, -0.58, 0.82, 140.31, 38.12)" style="font-size:24.239519119262695px;fill:#fff;font-family:Nickainley-Normal, Nickainley">t</text><text transform="matrix(0.8, 0.65, -0.64, 0.78, 144.37, 40.86)" style="font-size:24.239519119262695px;fill:#fff;font-family:Nickainley-Normal, Nickainley">e</text><text transform="matrix(0.88, 0.54, -0.53, 0.85, 34, 184.72)" style="font-size:17.98908042907715px;fill:#fff;font-family:Nickainley-Normal, Nickainley">F</text><text transform="matrix(0.93, 0.44, -0.44, 0.9, 45.58, 191.5)" style="font-size:17.98908042907715px;fill:#fff;font-family:Nickainley-Normal, Nickainley">e</text><text transform="matrix(0.96, 0.38, -0.38, 0.93, 51.66, 194.38)" style="font-size:17.98908042907715px;fill:#fff;font-family:Nickainley-Normal, Nickainley">b</text><text transform="matrix(0.99, 0.3, -0.3, 0.96, 59.32, 197.32)" style="font-size:17.98908042907715px;fill:#fff;font-family:Nickainley-Normal, Nickainley">u</text><text transform="matrix(1.01, 0.21, -0.22, 0.98, 67.56, 199.73)" style="font-size:17.98908042907715px;fill:#fff;font-family:Nickainley-Normal, Nickainley">a</text><text transform="matrix(1.03, 0.13, -0.14, 0.99, 75.92, 201.42)" style="font-size:17.98908042907715px;fill:#fff;font-family:Nickainley-Normal, Nickainley">r</text><text transform="matrix(1.04, 0.05, -0.06, 1, 83.79, 202.41)" style="font-size:17.98908042907715px;fill:#fff;font-family:Nickainley-Normal, Nickainley">y</text><text transform="matrix(1.04, -0.02, 0.01, 1, 92.24, 202.76)" style="font-size:17.98908042907715px;fill:#fff;font-family:Nickainley-Normal, Nickainley"> </text><text transform="matrix(1.04, -0.1, 0.08, 0.99, 98.84, 202.64)" style="font-size:17.98908042907715px;fill:#fff;font-family:Nickainley-Normal, Nickainley">2</text><text transform="matrix(1.02, -0.2, 0.18, 0.98, 108.86, 201.6)" style="font-size:17.98908042907715px;fill:#fff;font-family:Nickainley-Normal, Nickainley">4</text><text transform="matrix(1.01, -0.27, 0.25, 0.96, 118.18, 199.65)" style="font-size:17.98908042907715px;fill:#fff;font-family:Nickainley-Normal, Nickainley">t</text><text transform="matrix(0.99, -0.33, 0.3, 0.95, 122.47, 198.54)" style="font-size:17.98908042907715px;fill:#fff;font-family:Nickainley-Normal, Nickainley">h</text><text transform="matrix(0.97, -0.39, 0.37, 0.92, 130.19, 195.9)" style="font-size:17.98908042907715px;fill:#fff;font-family:Nickainley-Normal, Nickainley">,</text><text transform="matrix(0.95, -0.44, 0.41, 0.9, 134.7, 194.07)" style="font-size:17.98908042907715px;fill:#fff;font-family:Nickainley-Normal, Nickainley"> </text><text transform="matrix(0.91, -0.52, 0.48, 0.87, 140.77, 191.25)" style="font-size:17.98908042907715px;fill:#fff;font-family:Nickainley-Normal, Nickainley">2</text><text transform="matrix(0.85, -0.61, 0.57, 0.81, 149.72, 186.09)" style="font-size:17.98908042907715px;fill:#fff;font-family:Nickainley-Normal, Nickainley">0</text><text transform="matrix(0.79, -0.68, 0.65, 0.75, 158.4, 179.75)" style="font-size:17.98908042907715px;fill:#fff;font-family:Nickainley-Normal, Nickainley">1</text><text transform="matrix(0.73, -0.75, 0.71, 0.69, 164.28, 174.72)" style="font-size:17.98908042907715px;fill:#fff;font-family:Nickainley-Normal, Nickainley">8</text><text transform="matrix(0.66, -0.81, 0.77, 0.63, 171.42, 167.22)" style="font-size:17.98908042907715px;fill:#fff;font-family:Nickainley-Normal, Nickainley"> </text><path d="M26.87,165.74a90.46,90.46,0,0,0,12.41,12.73" transform="translate(-7.28 -4.73)" style="fill:none;stroke:#fff;stroke-miterlimit:10;stroke-width:1.13386px"/><path d="M48.1,37.69c-22.33,15-37.76,39.17-40,67.22a85.77,85.77,0,0,0,5.06,36.66" transform="translate(-7.28 -4.73)" style="fill:none;stroke:#fff;stroke-miterlimit:10;stroke-width:1.13386px"/><path d="M179.09,158.8A86.78,86.78,0,0,0,166.84,47.18" transform="translate(-7.28 -4.73)" style="fill:none;stroke:#fff;stroke-miterlimit:10;stroke-width:1.13386px"/><path d="M96.69,169.83c1-1.82,4.19-4.75,6.33-6.61a1,1,0,0,1,1.68.86c-.45,2.74-1.26,6.88-2.28,8.69-1.59,2.83-4.16,4.46-5.75,3.65S95.1,172.65,96.69,169.83Z" transform="translate(-7.28 -4.73)" style="fill:#fff"/><path d="M107.54,173.91c-.05-2,1.18-6.1,2.07-8.73a1,1,0,0,1,1.92-.07c1,2.58,2.48,6.53,2.53,8.58.09,3.21-1.3,5.85-3.1,5.91S107.63,177.11,107.54,173.91Z" transform="translate(-7.28 -4.73)" style="fill:#fff"/><path d="M119.11,172.21c-1.11-1.74-2.14-5.82-2.74-8.52a1,1,0,0,1,1.64-1c2.23,1.72,5.55,4.43,6.67,6.17,1.74,2.72,1.9,5.67.36,6.58S120.85,174.93,119.11,172.21Z" transform="translate(-7.28 -4.73)" style="fill:#fff"/><path d="M120.77,52.17c-1,1.81-4.19,4.74-6.33,6.6a1,1,0,0,1-1.68-.86c.45-2.73,1.26-6.87,2.28-8.69,1.59-2.83,4.16-4.46,5.74-3.65S122.36,49.34,120.77,52.17Z" transform="translate(-7.28 -4.73)" style="fill:#fff"/><path d="M109.92,48.08c0,2.06-1.18,6.1-2.07,8.74a1,1,0,0,1-1.92.06c-1-2.57-2.48-6.52-2.53-8.58-.09-3.2,1.3-5.85,3.1-5.91S109.83,44.88,109.92,48.08Z" transform="translate(-7.28 -4.73)" style="fill:#fff"/><path d="M98.35,49.78c1.11,1.74,2.14,5.82,2.74,8.52a1,1,0,0,1-1.64,1c-2.23-1.71-5.55-4.42-6.67-6.17-1.74-2.71-1.9-5.66-.37-6.58S96.61,47.06,98.35,49.78Z" transform="translate(-7.28 -4.73)" style="fill:#fff"/><path d="M35.8,88.81c1.59,1.36,3.77,5,5.13,7.41a1,1,0,0,1-1.29,1.37c-2.65-1-6.64-2.73-8.22-4.1-2.47-2.13-3.49-4.91-2.28-6.2S33.33,86.67,35.8,88.81Z" transform="translate(-7.28 -4.73)" style="fill:#fff"/><path d="M29,98c2.09.42,5.88,2.49,8.32,3.93a1,1,0,0,1-.4,1.8c-2.86.38-7.21.83-9.3.41-3.25-.65-5.59-2.55-5.2-4.24S25.76,97.36,29,98Z" transform="translate(-7.28 -4.73)" style="fill:#fff"/><path d="M27.89,109.21c2-.65,6.41-.68,9.28-.62a1,1,0,0,1,.59,1.75c-2.29,1.69-5.84,4.18-7.88,4.82-3.17,1-6.19.49-6.74-1.15S24.72,110.21,27.89,109.21Z" transform="translate(-7.28 -4.73)" style="fill:#fff"/><path d="M179.4,113.18c-2.1-.33-6-2.23-8.5-3.55a1,1,0,0,1,.32-1.82c2.83-.51,7.16-1.15,9.27-.83,3.28.51,5.71,2.3,5.41,4S182.69,113.68,179.4,113.18Z" transform="translate(-7.28 -4.73)" style="fill:#fff"/><path d="M180,102c-2,.73-6.37,1-9.25,1a1,1,0,0,1-.67-1.71c2.21-1.8,5.64-4.43,7.64-5.17,3.12-1.15,6.17-.76,6.79.85S183.11,100.8,180,102Z" transform="translate(-7.28 -4.73)" style="fill:#fff"/><path d="M174.66,92c-1.36,1.6-5,3.89-7.52,5.33a1,1,0,0,1-1.47-1.16c1-2.6,2.6-6.52,4-8.12,2.12-2.49,5-3.62,6.36-2.53S176.78,89.5,174.66,92Z" transform="translate(-7.28 -4.73)" style="fill:#fff"/></g></svg>